<svg width="138" height="231" viewBox="0 0 138 231" fill="none" xmlns="http://www.w3.org/2000/svg">
<g opacity="0.7">
<path d="M120.541 230.245L122.836 226.38C122.836 226.38 129.33 220.582 131.237 215.931C133.144 211.281 131.624 204.32 131.997 202.78C132.384 201.225 133.904 183.423 136.585 165.621C139.251 147.819 133.144 129.625 133.144 129.625L126.649 90.1563C126.649 90.1563 128.183 58.4181 122.061 45.2669C115.953 32.1156 92.6555 29.3978 88.842 23.2072C85.0285 17.0166 83.8815 0.754951 83.8815 0.754951L68.9851 3.45768L55.638 0.754951C55.638 0.754951 54.491 17.0015 50.6775 23.2072C46.864 29.3978 22.0467 32.1005 15.9392 45.2669C9.83164 58.4181 11.3511 90.1563 11.3511 90.1563L4.85625 129.625C4.85625 129.625 -1.25126 147.819 1.41519 165.621C4.08164 183.423 5.61597 201.225 6.00327 202.78C6.39058 204.335 4.85625 211.296 6.76299 215.931C8.66972 220.582 15.1645 226.38 15.1645 226.38L17.4586 230.245" fill="white"/>
<path d="M120.541 230.245L122.836 226.38C122.836 226.38 129.33 220.582 131.237 215.931C133.144 211.281 131.624 204.32 131.997 202.78C132.384 201.225 133.904 183.423 136.585 165.621C139.251 147.819 133.144 129.625 133.144 129.625L126.649 90.1563C126.649 90.1563 128.183 58.4181 122.061 45.2669C115.953 32.1156 92.6555 29.3978 88.842 23.2072C85.0285 17.0166 83.8815 0.754951 83.8815 0.754951L68.9851 3.45768L55.638 0.754951C55.638 0.754951 54.491 17.0015 50.6775 23.2072C46.864 29.3978 22.0467 32.1005 15.9392 45.2669C9.83164 58.4181 11.3511 90.1563 11.3511 90.1563L4.85625 129.625C4.85625 129.625 -1.25126 147.819 1.41519 165.621C4.08164 183.423 5.61597 201.225 6.00327 202.78C6.39058 204.335 4.85625 211.296 6.76299 215.931C8.66972 220.582 15.1645 226.38 15.1645 226.38L17.4586 230.245" stroke="#56A2BE" stroke-miterlimit="10" stroke-linecap="round" stroke-linejoin="round"/>
<path d="M22.4935 148.952C22.4935 148.952 69.5511 154.463 114.702 148.952C114.702 148.952 119.901 170.528 120.139 176.508C120.378 182.502 120.616 201.195 120.616 201.195L120.854 210.541L70.9663 219.646H68.136L16.8329 211.492L17.0712 197.827C17.0712 197.827 16.3562 183.695 17.5479 177.459C18.7396 171.223 22.4935 148.952 22.4935 148.952Z" fill="#56A2BE" fill-opacity="0.4" stroke="#56A2BE" stroke-miterlimit="10" stroke-linecap="round" stroke-linejoin="round"/>
<path d="M56.8744 206.102C56.8744 206.102 63.6224 212.76 69 213.983C74.3776 215.206 82.9132 207.008 82.9132 207.008" stroke="#56A2BE" stroke-miterlimit="10" stroke-linecap="round" stroke-linejoin="round"/>
<path d="M36.6898 176.749L48.4431 189.447" stroke="#56A2BE" stroke-miterlimit="10" stroke-linecap="round" stroke-linejoin="round"/>
<path d="M89.9592 191.033L97.7947 179.92" stroke="#56A2BE" stroke-miterlimit="10" stroke-linecap="round" stroke-linejoin="round"/>
<path d="M44.7488 37.2946C44.7488 37.2946 60.9411 36.3887 63.3394 36.3887C65.7378 36.3887 68.7319 38.8196 68.7319 38.8196" stroke="#56A2BE" stroke-miterlimit="10" stroke-linecap="round" stroke-linejoin="round"/>
<path d="M97.8096 37.2946C97.8096 37.2946 81.6172 36.3887 79.2189 36.3887C76.8206 36.3887 73.8264 38.8196 73.8264 38.8196" stroke="#56A2BE" stroke-miterlimit="10" stroke-linecap="round" stroke-linejoin="round"/>
<path d="M70.2811 50.5364V83.7996" stroke="#56A2BE" stroke-miterlimit="10" stroke-linecap="round" stroke-linejoin="round"/>
<path d="M33.6211 91.5907C33.6211 91.5907 38.3135 92.0286 48.5473 87.6951" stroke="#56A2BE" stroke-miterlimit="10" stroke-linecap="round" stroke-linejoin="round"/>
<path d="M104.394 91.5907C104.394 91.5907 99.7015 92.0286 89.4677 87.6951" stroke="#56A2BE" stroke-miterlimit="10" stroke-linecap="round" stroke-linejoin="round"/>
<path d="M29.6885 61.3474C29.6885 61.3474 26.024 75.8726 26.3517 81.6253C26.6794 87.363 28.0201 92.4362 28.0201 92.4362C28.0201 92.4362 23.6853 135.68 23.0149 145.479C22.3446 155.278 16.684 170.815 16.684 191.773C16.684 212.73 17.4586 230.245 17.4586 230.245" stroke="#56A2BE" stroke-miterlimit="10" stroke-linecap="round" stroke-linejoin="round"/>
<path d="M107.79 61.3474C107.79 61.3474 111.455 75.8726 111.127 81.6253C110.799 87.363 109.459 92.4362 109.459 92.4362C109.459 92.4362 113.793 135.68 114.464 145.479C115.134 155.278 120.795 170.815 120.795 191.773C120.795 212.73 120.556 230.245 120.556 230.245" stroke="#56A2BE" stroke-miterlimit="10" stroke-linecap="round" stroke-linejoin="round"/>
<path d="M17.9204 133.657C17.9204 133.657 23.8194 143.652 22.4936 148.937" stroke="#56A2BE" stroke-miterlimit="10" stroke-linecap="round" stroke-linejoin="round"/>
<path d="M114.717 148.952C114.717 148.952 116.192 137.779 119.022 130.788" stroke="#56A2BE" stroke-miterlimit="10" stroke-linecap="round" stroke-linejoin="round"/>
</g>
</svg>
