<svg width="194" height="248" viewBox="0 0 194 248" fill="none" xmlns="http://www.w3.org/2000/svg">
<g opacity="0.7">
<path d="M188.763 152.127C186.707 135.941 180.154 123.83 180.154 123.83V98.7727C180.154 98.7727 184.385 84.3011 177.324 73.1706C177.76 68.1335 178.423 57.867 172.251 49.1084C166.078 40.3658 147.578 39.4835 147.578 39.4835C147.578 39.4835 136.349 34.8956 128.189 30.5163C120.046 26.137 116.297 19.1429 116.297 19.1429L114.972 1L96.8921 1.1925L78.8119 1L77.487 19.1589C77.487 19.1589 73.7384 26.153 65.5951 30.5323C57.4517 34.9117 46.2061 39.4995 46.2061 39.4995C46.2061 39.4995 27.7058 40.3818 21.5337 49.1244C15.3615 57.867 16.024 68.1496 16.4602 73.1866C9.44789 86.8242 15.3121 101.122 15.3121 101.122L11.4191 129.38C11.4191 129.38 5.9094 145.133 5.0369 152.127C4.14824 159.121 0.415865 207.053 1.07832 210.55C1.74078 214.047 3.50194 218.201 4.1644 220.832C4.82685 223.463 9.01164 239.857 9.44789 241.173C9.88414 242.488 18.0437 242.921 19.3524 244.894C20.6773 246.868 25.2984 241.831 27.4958 239.216C29.6932 236.585 32.7793 238.558 33.6679 234.179C34.5566 229.799 34.1042 227.618 33.8941 223.896C33.6679 220.175 30.1456 217.335 27.0595 215.587C23.9735 213.838 18.2537 212.956 18.0275 201.807C17.8013 190.658 33.6679 160.661 34.9928 151.036C36.3178 141.411 34.9928 129.171 35.4291 128.514C35.8653 127.856 45.1236 102.703 45.1236 102.703C45.1236 102.703 49.5346 114.943 50.6333 119.322C51.732 123.701 55.0443 135.941 55.0443 135.941L50.8595 152.704H94.5008H99.3157H142.957L138.772 135.941C138.772 135.941 142.068 123.701 143.183 119.322C144.282 114.943 148.693 102.703 148.693 102.703C148.693 102.703 157.951 127.856 158.387 128.514C158.824 129.171 157.499 141.411 158.824 151.036C160.149 160.661 175.999 190.658 175.789 201.807C175.563 212.956 169.843 213.838 166.757 215.587C163.671 217.335 160.149 220.175 159.922 223.896C159.696 227.618 159.26 229.799 160.149 234.179C161.037 238.558 164.107 236.585 166.321 239.216C168.518 241.847 173.155 246.868 174.464 244.894C175.789 242.921 183.932 242.488 184.385 241.173C184.821 239.857 189.006 223.463 189.668 220.832C190.331 218.201 192.092 214.047 192.754 210.55C193.384 207.053 189.652 159.121 188.763 152.127Z" fill="white"/>
<path d="M64.0919 112.055C65.774 119.322 88.65 119.456 96.0511 115.419M69.9791 125.512C73.3433 132.24 88.65 132.551 96.0511 128.514M74.1843 138.968C76.7074 144.014 87.6408 145.696 96.0511 141.491M96.8921 115.419C101.378 117.763 121.282 121.306 128.851 112.055M96.8921 128.514C101.378 130.857 113.713 133.922 122.123 125.512M96.8921 141.491C101.378 143.835 110.349 144.014 117.077 138.968M188.763 152.127C186.707 135.941 180.154 123.83 180.154 123.83V98.7727C180.154 98.7727 184.385 84.3011 177.324 73.1706C177.76 68.1335 178.423 57.867 172.251 49.1084C166.078 40.3658 147.578 39.4835 147.578 39.4835C147.578 39.4835 136.349 34.8956 128.189 30.5163C120.046 26.137 116.297 19.1429 116.297 19.1429L114.972 1L96.8921 1.1925L78.8119 1L77.487 19.1589C77.487 19.1589 73.7384 26.153 65.5951 30.5323C57.4517 34.9117 46.2061 39.4995 46.2061 39.4995C46.2061 39.4995 27.7058 40.3818 21.5337 49.1244C15.3615 57.867 16.024 68.1496 16.4602 73.1866C9.44789 86.8242 15.3121 101.122 15.3121 101.122L11.4191 129.38C11.4191 129.38 5.9094 145.133 5.0369 152.127C4.14824 159.121 0.415865 207.053 1.07832 210.55C1.74078 214.047 3.50194 218.201 4.1644 220.832C4.82685 223.463 9.01164 239.857 9.44789 241.173C9.88414 242.488 18.0437 242.921 19.3524 244.894C20.6773 246.868 25.2984 241.831 27.4958 239.216C29.6932 236.585 32.7793 238.558 33.6679 234.179C34.5566 229.799 34.1042 227.618 33.8941 223.896C33.6679 220.175 30.1456 217.335 27.0595 215.587C23.9735 213.838 18.2537 212.956 18.0275 201.807C17.8013 190.658 33.6679 160.661 34.9928 151.036C36.3178 141.411 34.9928 129.171 35.4291 128.514C35.8653 127.856 45.1236 102.703 45.1236 102.703C45.1236 102.703 49.5346 114.943 50.6333 119.322C51.732 123.701 55.0443 135.941 55.0443 135.941L50.8595 152.704H94.5008H99.3157H142.957L138.772 135.941C138.772 135.941 142.068 123.701 143.183 119.322C144.282 114.943 148.693 102.703 148.693 102.703C148.693 102.703 157.951 127.856 158.387 128.514C158.824 129.171 157.499 141.411 158.824 151.036C160.149 160.661 175.999 190.658 175.789 201.807C175.563 212.956 169.843 213.838 166.757 215.587C163.671 217.335 160.149 220.175 159.922 223.896C159.696 227.618 159.26 229.799 160.149 234.179C161.037 238.558 164.107 236.585 166.321 239.216C168.518 241.847 173.155 246.868 174.464 244.894C175.789 242.921 183.932 242.488 184.385 241.173C184.821 239.857 189.006 223.463 189.668 220.832C190.331 218.201 192.092 214.047 192.754 210.55C193.384 207.053 189.652 159.121 188.763 152.127Z" stroke="#56A2BE" stroke-miterlimit="10" stroke-linecap="round" stroke-linejoin="round"/>
<path d="M56.0137 40.1893L79.232 43.173" stroke="#56A2BE" stroke-miterlimit="10" stroke-linecap="round" stroke-linejoin="round"/>
<path d="M139.128 39.4514L113.68 42.8041" stroke="#56A2BE" stroke-miterlimit="10" stroke-linecap="round" stroke-linejoin="round"/>
<path d="M45.1233 102.703L39.1612 81.079L33.5546 72.8979" stroke="#56A2BE" stroke-miterlimit="10" stroke-linecap="round" stroke-linejoin="round"/>
<path d="M148.677 102.703L152.991 78.8493L159.341 71.0531" stroke="#56A2BE" stroke-miterlimit="10" stroke-linecap="round" stroke-linejoin="round"/>
<path d="M46.6583 89.998C46.6583 89.998 56.0135 97.0563 60.5053 98.1792C64.997 99.3021 82.9641 99.6711 91.9477 92.2278" stroke="#56A2BE" stroke-miterlimit="10" stroke-linecap="round" stroke-linejoin="round"/>
<path d="M145.122 89.998C145.122 89.998 135.767 97.0563 131.275 98.1792C126.783 99.3021 108.816 99.6711 99.8326 92.2278" stroke="#56A2BE" stroke-miterlimit="10" stroke-linecap="round" stroke-linejoin="round"/>
<path d="M28.1581 227.858C28.1581 227.858 23.4886 232.494 22.5192 236.024" stroke="#56A2BE" stroke-miterlimit="10" stroke-linecap="round" stroke-linejoin="round"/>
<path d="M25.0883 231.692C25.0883 231.692 26.704 231.211 27.5119 233.617C28.3198 236.024 28.6106 238.382 27.4957 239.2" stroke="#56A2BE" stroke-miterlimit="10" stroke-linecap="round" stroke-linejoin="round"/>
<path d="M167.145 225.388C167.145 225.388 171.443 228.949 170.247 233.216" stroke="#56A2BE" stroke-miterlimit="10" stroke-linecap="round" stroke-linejoin="round"/>
<path d="M164.996 237.483C164.996 237.483 164.511 233.922 165.481 232.27C166.434 230.618 170.021 230.618 170.021 230.618" stroke="#56A2BE" stroke-miterlimit="10" stroke-linecap="round" stroke-linejoin="round"/>
<path d="M129.756 246.659C130.08 241.847 145.898 237.933 146.544 210.149C147.19 182.349 142.957 152.72 142.957 152.72H96.8436H50.7464C50.7464 152.72 46.5131 182.365 47.1594 210.149C47.8057 237.949 63.6239 241.863 63.947 246.659" fill="white"/>
<path d="M129.756 246.659C130.08 241.847 145.898 237.933 146.544 210.149C147.19 182.349 142.957 152.72 142.957 152.72H96.8436H50.7464C50.7464 152.72 46.5131 182.365 47.1594 210.149C47.8057 237.949 63.6239 241.863 63.947 246.659" stroke="#56A2BE" stroke-miterlimit="10" stroke-linecap="round" stroke-linejoin="round"/>
<path d="M96.8436 152.704H50.7464C50.7464 152.704 46.5131 182.349 47.1594 210.133C47.224 213.133 47.4826 216.469 47.8703 219.998C54.8988 223.592 71.0078 229.046 96.7305 222.661C96.7305 222.661 123.471 232.061 145.365 223.993C146.027 218.94 146.447 214.239 146.544 210.133C147.19 182.333 142.957 152.704 142.957 152.704H96.8436Z" fill="#56A2BE" fill-opacity="0.4" stroke="#56A2BE" stroke-miterlimit="10" stroke-linecap="round" stroke-linejoin="round"/>
<path d="M96.7146 246.483V197.925" stroke="#56A2BE" stroke-miterlimit="10" stroke-linecap="round" stroke-linejoin="round"/>
<path d="M88.5065 189.327C88.5065 189.327 92.6105 196.738 98.9604 198.952" stroke="#56A2BE" stroke-miterlimit="10" stroke-linecap="round" stroke-linejoin="round"/>
<path d="M96.1166 62.6635V85.5867M96.1166 108.691V143.173" stroke="#56A2BE" stroke-miterlimit="10" stroke-linecap="round" stroke-linejoin="round"/>
<path d="M35.4969 128.876C35.7773 126.633 35.4969 120.297 32.1328 112.896M158.288 128.876C158.288 124.951 159.129 116.26 162.493 112.896" stroke="#56A2BE" stroke-linecap="round"/>
</g>
</svg>
