<svg width="71" height="19" viewBox="0 0 71 19" fill="none" xmlns="http://www.w3.org/2000/svg">
<path d="M26.4596 3.88579H22.5437C22.2758 3.88579 22.0479 4.08155 22.0061 4.34755L20.4223 14.4446C20.3908 14.6438 20.5443 14.8235 20.7453 14.8235H22.6147C22.8827 14.8235 23.1106 14.6277 23.1524 14.3611L23.5795 11.6378C23.6208 11.3712 23.8492 11.1755 24.1166 11.1755H25.3563C27.9357 11.1755 29.4244 9.9203 29.8132 7.43303C29.9884 6.34485 29.8207 5.48985 29.3139 4.89106C28.7574 4.23355 27.7703 3.88579 26.4596 3.88579ZM26.9114 7.57352C26.6972 8.98642 25.6236 8.98642 24.5856 8.98642H23.9947L24.4092 6.34773C24.4338 6.18824 24.5712 6.07079 24.7316 6.07079H25.0024C25.7095 6.07079 26.3766 6.07079 26.7213 6.47612C26.9268 6.71794 26.9898 7.07721 26.9114 7.57352Z" fill="#253B80"/>
<path d="M38.1647 7.52803H36.2895C36.1297 7.52803 35.9917 7.64549 35.9671 7.80497L35.8841 8.33237L35.753 8.14122C35.347 7.54876 34.4417 7.3507 33.5382 7.3507C31.466 7.3507 29.6962 8.92885 29.3515 11.1426C29.1723 12.2469 29.4271 13.3029 30.0501 14.0393C30.6215 14.7164 31.4391 14.9985 32.4119 14.9985C34.0816 14.9985 35.0075 13.9189 35.0075 13.9189L34.9239 14.4429C34.8924 14.6432 35.0458 14.8229 35.2457 14.8229H36.9348C37.2033 14.8229 37.43 14.6271 37.4724 14.3605L38.4859 7.90688C38.5179 7.70825 38.3651 7.52803 38.1647 7.52803ZM35.5508 11.1979C35.3699 12.2752 34.5196 12.9983 33.4352 12.9983C32.8906 12.9983 32.4555 12.8227 32.176 12.4899C31.8989 12.1594 31.7936 11.689 31.8817 11.1651C32.0507 10.0971 32.9152 9.35031 33.9831 9.35031C34.5156 9.35031 34.9485 9.52822 35.2336 9.86388C35.5193 10.203 35.6327 10.6763 35.5508 11.1979Z" fill="#253B80"/>
<path d="M48.1518 7.52803H46.2675C46.0877 7.52803 45.9188 7.61785 45.8168 7.76812L43.2179 11.6176L42.1163 7.91839C42.047 7.68694 41.8345 7.52803 41.5941 7.52803H39.7423C39.5173 7.52803 39.361 7.74912 39.4326 7.96215L41.5082 14.0871L39.5568 16.857C39.4034 17.0752 39.558 17.3752 39.8231 17.3752H41.7051C41.8838 17.3752 42.051 17.2877 42.1523 17.1403L48.4198 8.04333C48.5698 7.8257 48.4158 7.52803 48.1518 7.52803Z" fill="#253B80"/>
<path d="M54.3905 3.88579H50.4741C50.2067 3.88579 49.9788 4.08155 49.937 4.34755L48.3532 14.4446C48.3217 14.6438 48.4752 14.8235 48.675 14.8235H50.6848C50.8714 14.8235 51.0312 14.6864 51.0604 14.4999L51.5099 11.6378C51.5511 11.3712 51.7796 11.1755 52.047 11.1755H53.286C55.8661 11.1755 57.3542 9.9203 57.7436 7.43303C57.9193 6.34485 57.7504 5.48985 57.2437 4.89106C56.6877 4.23355 55.7012 3.88579 54.3905 3.88579ZM54.8423 7.57352C54.6287 8.98642 53.5551 8.98642 52.5165 8.98642H51.9261L52.3413 6.34773C52.3659 6.18824 52.5022 6.07079 52.6631 6.07079H52.9339C53.6404 6.07079 54.3081 6.07079 54.6528 6.47612C54.8583 6.71794 54.9207 7.07721 54.8423 7.57352Z" fill="#179BD7"/>
<path d="M66.0953 7.52803H64.2213C64.0604 7.52803 63.9235 7.64549 63.8995 7.80497L63.8165 8.33237L63.6848 8.14122C63.2788 7.54876 62.3741 7.3507 61.4706 7.3507C59.3984 7.3507 57.6291 8.92885 57.2845 11.1426C57.1058 12.2469 57.3595 13.3029 57.9824 14.0393C58.555 14.7164 59.3715 14.9985 60.3443 14.9985C62.014 14.9985 62.9398 13.9189 62.9398 13.9189L62.8562 14.4429C62.8247 14.6432 62.9782 14.8229 63.1792 14.8229H64.8677C65.1351 14.8229 65.363 14.6271 65.4048 14.3605L66.4188 7.90688C66.4498 7.70825 66.2963 7.52803 66.0953 7.52803ZM63.4815 11.1979C63.3017 12.2752 62.4503 12.9983 61.3658 12.9983C60.8224 12.9983 60.3861 12.8227 60.1067 12.4899C59.8296 12.1594 59.7254 11.689 59.8124 11.1651C59.9825 10.0971 60.8459 9.35031 61.9138 9.35031C62.4463 9.35031 62.8791 9.52822 63.1643 9.86388C63.4511 10.203 63.5645 10.6763 63.4815 11.1979Z" fill="#179BD7"/>
<path d="M68.3059 4.16273L66.6987 14.4446C66.6672 14.6438 66.8207 14.8235 67.0205 14.8235H68.6363C68.9048 14.8235 69.1327 14.6277 69.174 14.3611L70.7589 4.26464C70.7903 4.06543 70.6369 3.88522 70.4371 3.88522H68.6277C68.468 3.88579 68.3305 4.00325 68.3059 4.16273Z" fill="#179BD7"/>
<path d="M4.16028 16.7856L4.45974 14.873L3.79269 14.8574H0.607422L2.82102 0.74388C2.82789 0.701274 2.85022 0.661546 2.88286 0.633334C2.91549 0.605122 2.95729 0.589577 3.00081 0.589577H8.37162C10.1546 0.589577 11.3851 0.962668 12.0275 1.69906C12.3287 2.04452 12.5205 2.40552 12.6133 2.80279C12.7106 3.21964 12.7123 3.71767 12.6173 4.32509L12.6104 4.36943V4.75864L12.9116 4.93021C13.1653 5.06552 13.3668 5.22039 13.5214 5.39773C13.7791 5.69309 13.9457 6.06849 14.0161 6.51355C14.0888 6.97127 14.0648 7.51594 13.9457 8.13258C13.8083 8.84191 13.5861 9.4597 13.2861 9.96521C13.0101 10.431 12.6585 10.8173 12.2411 11.1167C11.8426 11.4012 11.3691 11.6171 10.8337 11.7552C10.315 11.8911 9.72348 11.9596 9.07475 11.9596H8.65676C8.35787 11.9596 8.06758 12.0679 7.83969 12.2619C7.61123 12.46 7.46007 12.7306 7.41369 13.0265L7.3822 13.1987L6.85313 16.5697L6.82908 16.6935C6.82279 16.7327 6.81191 16.7522 6.79587 16.7655C6.78156 16.7776 6.76095 16.7856 6.74091 16.7856H4.16028Z" fill="#253B80"/>
<path d="M13.1967 4.41434C13.1807 4.5174 13.1624 4.62276 13.1418 4.731C12.4335 8.38764 10.0103 9.65085 6.91552 9.65085H5.33978C4.9613 9.65085 4.64238 9.92722 4.5834 10.3026L3.77664 15.4476L3.54818 16.906C3.50981 17.1524 3.69876 17.3746 3.94612 17.3746H6.74088C7.07184 17.3746 7.35297 17.1328 7.40508 16.8046L7.43256 16.6619L7.95876 13.304L7.99255 13.1198C8.04408 12.7905 8.32579 12.5486 8.65674 12.5486H9.07472C11.7825 12.5486 13.9022 11.4432 14.5217 8.24428C14.7805 6.90794 14.6465 5.79212 13.9617 5.00737C13.7544 4.77073 13.4973 4.5744 13.1967 4.41434Z" fill="#179BD7"/>
<path d="M12.4559 4.11724C12.3477 4.08557 12.236 4.05678 12.1215 4.03088C12.0064 4.00554 11.8885 3.98309 11.7671 3.96351C11.3422 3.89442 10.8767 3.8616 10.378 3.8616H6.1684C6.06476 3.8616 5.96628 3.88521 5.8781 3.92782C5.684 4.02166 5.53971 4.20648 5.50478 4.43275L4.60926 10.1362L4.5835 10.3026C4.64247 9.92721 4.9614 9.65084 5.33988 9.65084H6.91562C10.0104 9.65084 12.4336 8.38706 13.1419 4.731C13.163 4.62275 13.1808 4.51739 13.1968 4.41433C13.0176 4.31875 12.8235 4.237 12.6145 4.16733C12.563 4.15006 12.5097 4.13336 12.4559 4.11724Z" fill="#222D65"/>
<path d="M5.50478 4.43276C5.53971 4.20648 5.684 4.02167 5.87811 3.92839C5.96686 3.88579 6.06477 3.86218 6.1684 3.86218H10.378C10.8767 3.86218 11.3422 3.895 11.7671 3.96409C11.8885 3.98367 12.0064 4.00612 12.1215 4.03145C12.236 4.05736 12.3477 4.08615 12.4559 4.11782C12.5097 4.13394 12.563 4.15064 12.6151 4.16733C12.8241 4.237 13.0182 4.31933 13.1974 4.41433C13.4081 3.06303 13.1957 2.14297 12.4691 1.30985C11.668 0.392667 10.2223 0 8.37227 0H3.00146C2.62356 0 2.3012 0.276364 2.24279 0.652333L0.00571941 14.911C-0.0383693 15.1931 0.178066 15.4476 0.460921 15.4476H3.77674L4.60927 10.1362L5.50478 4.43276Z" fill="#253B80"/>
</svg>
