<svg width="18" height="26" viewBox="0 0 18 26" fill="none" xmlns="http://www.w3.org/2000/svg">
<path d="M1.37014 1.4151C1.20803 1.13066 1.30723 0.768611 1.59168 0.606494C2.22157 0.24761 2.77169 0.173435 3.22649 0.385814C3.76455 0.637191 4.01118 1.19317 4.16928 1.8284C5.01439 1.39119 5.94631 1.13085 6.90492 1.06808C7.94574 0.999896 8.96099 1.15984 9.92322 1.54329C10.2274 1.66457 10.3756 2.00936 10.2544 2.3135C10.1332 2.61764 9.78838 2.76606 9.48417 2.64472C8.68715 2.327 7.84548 2.19466 6.98245 2.25118C6.07055 2.31093 5.18816 2.58596 4.41058 3.05044C4.49128 3.4582 4.59266 3.86181 4.73883 4.03025C4.95345 4.27755 4.92704 4.65198 4.67981 4.8666C4.56763 4.96403 4.42916 5.01178 4.29141 5.01178C4.12554 5.01178 3.96066 4.94262 3.84347 4.80757C3.43597 4.33815 3.30106 3.59114 3.17056 2.86869C3.08782 2.41053 2.93381 1.55772 2.72459 1.45996C2.67973 1.43882 2.50786 1.44896 2.17875 1.63651C1.89444 1.79895 1.53226 1.69955 1.37014 1.4151ZM8.4116 4.72213C8.6415 4.72213 8.86027 4.58762 8.95665 4.36305C9.08583 4.0622 8.94663 3.71353 8.64572 3.58435C7.95562 3.28818 7.20498 3.22072 6.47483 3.38949C6.1558 3.46321 5.95699 3.78164 6.03077 4.10067C6.10454 4.4197 6.42311 4.61878 6.74195 4.54473C7.22461 4.43308 7.72117 4.47781 8.17801 4.67398C8.25423 4.70672 8.33354 4.72213 8.4116 4.72213ZM9.59879 6.19601L9.75241 7.91889C9.75294 7.92686 9.75366 7.93477 9.75452 7.94261L9.8279 8.76531C9.85537 9.07354 10.1141 9.30555 10.4177 9.30555C10.4354 9.30555 10.4532 9.30469 10.4711 9.30318C10.7972 9.27413 11.038 8.98612 11.009 8.65991L10.992 8.47026H11.6686C11.9961 8.47026 12.2615 8.20485 12.2615 7.87739C12.2615 7.54993 11.9961 7.28452 11.6686 7.28452H10.8863L10.7799 6.09061C10.7367 5.6061 10.9719 5.2374 11.1768 5.01337C11.5791 4.57359 12.2003 4.31108 12.8384 4.31108H14.329C14.9672 4.31108 15.5883 4.57359 15.9906 5.0133C16.1662 5.20526 16.3641 5.5036 16.3899 5.89015H15.6229C15.2955 5.89015 15.0301 6.15556 15.0301 6.48303C15.0301 6.81049 15.2955 7.0759 15.6229 7.0759H16.2997L16.1584 8.65998C16.1294 8.98606 16.3702 9.27406 16.6963 9.30318C17.0226 9.33117 17.3105 9.09146 17.3395 8.76525L17.5686 6.19588C17.6321 5.48226 17.3824 4.77813 16.8654 4.21292C16.2424 3.53191 15.2942 3.12534 14.329 3.12534H14.3086C14.5603 2.24657 15.0703 1.51339 15.7397 1.09594C16.0176 0.922691 16.1024 0.556956 15.9291 0.279229C15.7559 0.00123899 15.3903 -0.0835415 15.1124 0.0898402C14.4826 0.482518 13.9583 1.06788 13.5837 1.77135C13.2091 1.06781 12.6848 0.482518 12.0551 0.0898402C11.7771 -0.0834097 11.4115 0.00137073 11.2383 0.279229C11.065 0.557022 11.1498 0.922757 11.4277 1.09594C12.0971 1.51339 12.6071 2.24657 12.8588 3.12534H12.8384C11.8732 3.12534 10.925 3.53198 10.3019 4.21306C9.78495 4.77819 9.53522 5.48239 9.59879 6.19601ZM6.68193 5.74339C6.40638 5.56645 6.03966 5.64649 5.86272 5.92217C5.68591 6.19772 5.76595 6.56445 6.0415 6.74132C6.46 7.00989 6.77521 7.39611 6.95314 7.85829C7.04378 8.09379 7.26842 8.23838 7.50655 8.23838C7.57737 8.23838 7.64937 8.2256 7.71939 8.19859C8.02498 8.08094 8.17735 7.73787 8.0597 7.43228C7.79054 6.73308 7.31413 6.14904 6.68193 5.74339ZM1.02806 8.99693C1.0411 8.99693 1.05421 8.99653 1.06738 8.99561C1.39412 8.97427 1.64161 8.69206 1.6202 8.36532C1.53971 7.13564 1.84596 5.93831 2.50589 4.90276C2.68184 4.62668 2.60068 4.26016 2.32453 4.08414C2.04852 3.90825 1.68199 3.98941 1.50591 4.26549C0.709489 5.5152 0.339801 6.95963 0.436965 8.44273C0.457584 8.75635 0.71825 8.99693 1.02806 8.99693ZM17.5697 10.4719V25.4071C17.5697 25.7346 17.3043 26 16.9769 26H1.02351C0.69605 26 0.430642 25.7346 0.430642 25.4071V10.4719C0.430642 10.1445 0.69605 9.87905 1.02351 9.87905H1.20631C1.41467 9.87905 1.60769 9.9884 1.7148 10.1671C1.84806 10.3894 2.09391 10.5276 2.35642 10.5276C2.61893 10.5276 2.86477 10.3894 2.9981 10.1671C3.10521 9.9884 3.29829 9.87905 3.50659 9.87905H3.85809C4.06645 9.87905 4.25953 9.9884 4.36664 10.1672C4.49984 10.3894 4.74569 10.5276 5.00819 10.5276C5.2707 10.5276 5.51661 10.3894 5.65001 10.167C5.75712 9.98834 5.95013 9.87905 6.15843 9.87905H6.5241C6.73246 9.87905 6.92547 9.9884 7.03258 10.1671C7.16585 10.3894 7.41169 10.5276 7.67414 10.5276C7.93665 10.5276 8.18256 10.3894 8.31589 10.1671C8.423 9.9884 8.61608 9.87905 8.82437 9.87905H9.17581C9.38417 9.87905 9.57725 9.9884 9.68436 10.1671C9.81763 10.3894 10.0635 10.5276 10.3259 10.5276C10.5885 10.5276 10.8343 10.3894 10.9676 10.1671C11.0747 9.9884 11.2678 9.87905 11.4761 9.87905H11.8418C12.0501 9.87905 12.2431 9.98834 12.3503 10.1671C12.4836 10.3894 12.7295 10.5276 12.9921 10.5276C13.2546 10.5276 13.5004 10.3894 13.6336 10.1672C13.7407 9.9884 13.9338 9.87905 14.1422 9.87905H14.4937C14.7021 9.87905 14.8952 9.9884 15.0023 10.1671C15.1355 10.3894 15.3813 10.5276 15.6438 10.5276C15.9063 10.5276 16.1522 10.3894 16.2856 10.1671C16.3927 9.9884 16.5857 9.87905 16.7941 9.87905H16.9769C17.3043 9.87905 17.5697 10.1445 17.5697 10.4719ZM16.384 11.5655C16.1523 11.6615 15.901 11.7133 15.6438 11.7133C15.1469 11.7133 14.6722 11.5199 14.318 11.1884C13.9637 11.5199 13.4891 11.7133 12.9921 11.7133C12.4919 11.7133 12.0141 11.5172 11.6591 11.1817C11.3041 11.5174 10.8264 11.7133 10.3261 11.7133C9.82915 11.7133 9.35446 11.5199 9.00019 11.1884C8.64592 11.5199 8.17129 11.7133 7.6744 11.7133C7.17415 11.7133 6.69636 11.5172 6.34136 11.1817C5.9863 11.5173 5.50858 11.7133 5.00839 11.7133C4.51144 11.7133 4.03674 11.5199 3.68247 11.1884C3.3282 11.5198 2.85351 11.7133 2.35661 11.7133C2.09944 11.7133 1.84813 11.6615 1.61645 11.5656V24.8142H16.3841V11.5655H16.384ZM4.27514 5.82415C3.96224 5.72731 3.63023 5.90214 3.53326 6.21492C3.31133 6.93058 3.32345 7.68425 3.56838 8.39431C3.65309 8.63989 3.88286 8.79403 4.12884 8.79403C4.19293 8.79403 4.25815 8.78356 4.32218 8.76143C4.63172 8.65471 4.79608 8.31723 4.68936 8.00769C4.52725 7.53768 4.51914 7.0392 4.66585 6.56603C4.76275 6.25332 4.58785 5.92118 4.27514 5.82415ZM12.0027 14.9656C12.9014 15.9421 13.0501 17.6001 12.3728 19.0915C11.6991 20.575 10.3636 21.5535 9.04373 21.5282C9.01073 21.5295 8.9774 21.5301 8.94433 21.5301C7.65714 21.5301 6.35223 20.5918 5.66641 19.1589C4.95925 17.6813 5.07466 16.0205 5.95363 15.0264C6.05988 14.9062 6.21027 14.8342 6.37055 14.8269C7.30484 14.7845 8.25811 15.2435 8.98754 16.0356C9.70538 15.22 10.6486 14.7502 11.5817 14.7744C11.7422 14.7785 11.8941 14.8476 12.0027 14.9656ZM8.6996 17.7072C8.25403 16.7762 7.45491 16.1191 6.68648 16.0222C6.2799 16.6814 6.29044 17.7161 6.73602 18.647C7.18159 19.578 7.98078 20.2351 8.74921 20.332C9.15579 19.6728 9.14518 18.6383 8.6996 17.7072ZM11.29 15.9759C10.7203 16.0594 10.1342 16.4527 9.69484 17.0466C9.7204 17.0955 9.74516 17.1451 9.76914 17.1954C10.215 18.1267 10.334 19.1308 10.1409 19.9949C10.6054 19.6886 11.0218 19.1988 11.2932 18.6012C11.72 17.6615 11.7097 16.627 11.29 15.9759Z" fill="black"/>
</svg>
