<svg width="15" height="17" viewBox="0 0 15 17" fill="none" xmlns="http://www.w3.org/2000/svg">
<path d="M14.5306 5.11379C14.5178 5.08428 14.4973 5.06119 14.4777 5.03809C14.2468 4.00655 13.552 3.42053 13.0183 2.97179C12.9387 2.90508 12.8618 2.84028 12.7886 2.77613L12.7825 2.77068C12.6738 2.67221 12.6555 2.55128 12.6597 2.46757C12.6667 2.30975 12.7524 2.15451 12.8884 2.05251C12.8996 2.04417 12.9076 2.03294 12.9182 2.02396C12.9573 1.99157 12.9942 1.95725 13.0279 1.9194C13.042 1.90336 13.0555 1.887 13.0686 1.87C13.0998 1.83023 13.1267 1.78789 13.1514 1.74362C13.1607 1.72694 13.1706 1.71058 13.1787 1.69326C13.2021 1.64419 13.22 1.59287 13.2348 1.53962C13.239 1.52455 13.2454 1.51011 13.2489 1.49472C13.264 1.4264 13.2739 1.35583 13.2739 1.28302V0.962264C13.2739 0.431736 12.8422 0 12.3117 0H8.78335C8.25283 0 7.82109 0.431736 7.82109 0.962264V1.28302C7.82109 1.35679 7.83135 1.428 7.84707 1.49696C7.85092 1.513 7.85701 1.52808 7.86183 1.54411C7.87722 1.598 7.89615 1.65028 7.9202 1.7C7.9279 1.71572 7.93656 1.73047 7.94522 1.74587C7.97281 1.79526 8.00392 1.84177 8.0392 1.8854C8.04883 1.89694 8.05781 1.90881 8.06775 1.92004C8.11362 1.97136 8.16366 2.01819 8.21947 2.05892C8.22075 2.05989 8.22171 2.06117 8.22299 2.06213C8.35643 2.15804 8.45041 2.30687 8.46805 2.45089C8.48056 2.55417 8.45458 2.64462 8.39107 2.71968C8.37343 2.74021 8.35354 2.76041 8.33301 2.77838C8.26213 2.839 8.18771 2.90123 8.11105 2.96441C7.91956 3.12319 7.71043 3.298 7.509 3.49943C7.31205 3.29928 7.10869 3.12704 6.92458 2.97211C6.84503 2.9054 6.76773 2.84028 6.6946 2.77613L6.68818 2.77068C6.57977 2.67221 6.56149 2.5516 6.56533 2.46757C6.57239 2.31008 6.65803 2.15451 6.79403 2.05251C6.80526 2.04417 6.81328 2.03294 6.82386 2.02396C6.86299 1.99157 6.89988 1.95725 6.93356 1.9194C6.94767 1.90336 6.96115 1.887 6.9743 1.87C7.00541 1.83023 7.03235 1.78789 7.05705 1.74362C7.06635 1.72694 7.0763 1.71058 7.08432 1.69326C7.10773 1.64419 7.12569 1.59287 7.14045 1.53962C7.14462 1.52455 7.15103 1.51011 7.15456 1.49472C7.16964 1.4264 7.17958 1.35583 7.17958 1.28302V0.962264C7.17958 0.431736 6.74784 0 6.21732 0H2.68901C2.15848 0 1.72675 0.431736 1.72675 0.962264V1.28302C1.72675 1.35679 1.73701 1.428 1.75273 1.49696C1.75658 1.513 1.76267 1.52808 1.76748 1.54411C1.78256 1.59832 1.80148 1.65028 1.82554 1.7C1.83324 1.71572 1.8419 1.73047 1.85056 1.74587C1.87782 1.79526 1.90926 1.84177 1.94454 1.8854C1.95416 1.89694 1.96315 1.90881 1.97309 1.92004C2.01896 1.97136 2.06899 2.01819 2.12481 2.05892C2.12609 2.05989 2.12705 2.06117 2.12833 2.06213C2.26177 2.15804 2.35575 2.30687 2.37339 2.45089C2.3859 2.55417 2.35992 2.64462 2.29641 2.71968C2.27877 2.74021 2.25888 2.76041 2.23835 2.77838C2.16522 2.8406 2.08856 2.90411 2.00965 2.96955C1.3489 3.51579 0.44373 4.26443 0.44373 5.77358V7.75681C0.443088 7.76675 0.443409 7.77638 0.44373 7.78632V15.4668C0.44373 16.3123 1.13175 17 1.97726 17H6.92907C7.13339 17 7.32777 16.9583 7.50611 16.8852C7.68958 16.9609 7.87883 17 8.07128 17H13.0234C13.8689 17 14.5566 16.312 14.5566 15.4665V5.77358C14.5566 5.62957 14.5464 5.49485 14.531 5.3643C14.5634 5.28668 14.5662 5.19719 14.5306 5.11379ZM13.9125 8.33962H12.9503C12.7732 8.33962 12.6295 8.483 12.6295 8.66038C12.6295 8.83775 12.7732 8.98113 12.9503 8.98113H13.9125V10.5849H12.3088C12.1317 10.5849 11.988 10.7283 11.988 10.9057C11.988 11.083 12.1317 11.2264 12.3088 11.2264H13.9125V11.8679H12.9503C12.7732 11.8679 12.6295 12.0113 12.6295 12.1887C12.6295 12.3661 12.7732 12.5094 12.9503 12.5094H13.9125V13.1509H11.0258V7.69811H13.9125V8.33962ZM8.4626 0.962264C8.4626 0.785208 8.60662 0.641509 8.78335 0.641509H12.3117C12.4884 0.641509 12.6324 0.785208 12.6324 0.962264V1.28302C12.6324 1.33049 12.6202 1.37604 12.6007 1.41774C12.5955 1.42864 12.5869 1.4373 12.5804 1.44789C12.5625 1.47675 12.5413 1.5037 12.5144 1.52647C12.4582 1.57234 12.3893 1.60377 12.3117 1.60377H8.78335C8.70477 1.60377 8.63549 1.57234 8.57967 1.52519C8.56845 1.51589 8.55722 1.50658 8.5476 1.496C8.52579 1.47194 8.50718 1.44564 8.49339 1.41581C8.49018 1.40875 8.48794 1.40106 8.48505 1.39368C8.47222 1.35904 8.4626 1.32215 8.4626 1.28302V0.962264ZM7.92213 3.99115C8.11233 3.79581 8.3189 3.62453 8.52001 3.45806C8.59988 3.39198 8.6775 3.32783 8.75192 3.26368C8.79843 3.22326 8.84077 3.1806 8.87926 3.13538C9.05888 2.924 9.13875 2.65328 9.10443 2.37294C9.09898 2.32964 9.08422 2.28794 9.07364 2.24528H12.0499C12.0358 2.30879 12.0214 2.37262 12.0185 2.43806C12.0044 2.75015 12.1211 3.03562 12.3566 3.25021L12.3652 3.25823C12.4416 3.32526 12.5224 3.39294 12.6051 3.46287C13.0837 3.86541 13.6078 4.31383 13.8176 5.06343C12.9432 5.39477 12.1795 5.46277 11.4379 5.27417C11.1034 5.18885 10.7749 5.0676 10.4574 4.95053C9.76615 4.69617 9.05022 4.43636 8.20856 4.50436C8.19381 4.47036 8.17873 4.43636 8.16269 4.40332C8.16109 4.39979 8.15949 4.39594 8.15756 4.39242C8.08764 4.24968 8.00905 4.11753 7.92373 3.99468C7.92309 3.9934 7.92277 3.99243 7.92213 3.99115ZM2.36826 0.962264C2.36826 0.785208 2.51228 0.641509 2.68901 0.641509H6.21732C6.39405 0.641509 6.53807 0.785208 6.53807 0.962264V1.28302C6.53807 1.33049 6.52588 1.37604 6.50632 1.41774C6.50118 1.42864 6.49252 1.4373 6.48611 1.44789C6.46815 1.47675 6.44698 1.5037 6.42003 1.52647C6.3639 1.57234 6.29494 1.60377 6.21732 1.60377H2.68901C2.61043 1.60377 2.54115 1.57234 2.48533 1.52519C2.47411 1.51589 2.46288 1.50658 2.45326 1.496C2.43145 1.47194 2.41284 1.44564 2.39905 1.41581C2.39584 1.40875 2.3936 1.40106 2.39071 1.39368C2.37788 1.35904 2.36826 1.32215 2.36826 1.28302V0.962264ZM2.41862 3.46383C2.50073 3.39583 2.58092 3.32975 2.65758 3.26368C2.70409 3.22326 2.74643 3.1806 2.78492 3.13538C2.96454 2.924 3.04441 2.65328 3.01009 2.37294C3.00464 2.32964 2.98988 2.28794 2.9793 2.24528H5.95558C5.94115 2.30911 5.92703 2.37294 5.92415 2.43838C5.91003 2.75079 6.02711 3.03626 6.26222 3.25053L6.27088 3.25823C6.34722 3.32526 6.42805 3.39326 6.51113 3.46319C6.81713 3.72043 7.14333 3.995 7.39352 4.35521C7.39705 4.36034 7.39994 4.36547 7.40347 4.3706C7.45735 4.44951 7.50675 4.53323 7.55262 4.62079C7.56064 4.63587 7.56866 4.65126 7.57635 4.66634C7.62254 4.76 7.66392 4.85879 7.69824 4.96432C7.70113 4.97362 7.70369 4.98292 7.70658 4.99223C7.74154 5.10321 7.77009 5.22028 7.78933 5.34634C7.78966 5.34891 7.78998 5.35179 7.7903 5.35436C7.80986 5.48555 7.82109 5.62475 7.82109 5.77391V7.25772C6.50439 6.81892 5.47284 7.04249 4.28701 7.548C3.12588 8.04357 2.31758 8.04709 1.08524 7.55506V5.77358C1.08524 4.56626 1.79347 3.98057 2.41862 3.46383ZM1.08524 15.4668V8.24179C1.67479 8.45702 2.19248 8.56928 2.69864 8.56928C3.2869 8.56928 3.8649 8.42494 4.53849 8.13755C5.86673 7.57109 6.72635 7.51817 7.82109 7.94092V15.4662C7.82109 15.5415 7.80922 15.615 7.7903 15.6862C7.78709 15.6993 7.78228 15.7115 7.77843 15.7244C7.75726 15.7914 7.73064 15.8568 7.69439 15.9171C7.69407 15.9178 7.69375 15.9184 7.69343 15.9187C7.61164 16.0535 7.49328 16.1676 7.34766 16.2465L7.2649 16.2915C7.16098 16.3341 7.04775 16.3585 6.92907 16.3585H1.97694C1.48522 16.3585 1.08524 15.9585 1.08524 15.4668ZM13.0234 16.3585H8.17135C8.20343 16.3139 8.23037 16.2658 8.25764 16.2177C8.27592 16.1859 8.2942 16.1545 8.30992 16.1215C8.32949 16.0801 8.34681 16.0381 8.36284 15.9951C8.38113 15.9466 8.39588 15.8972 8.40903 15.8472C8.41801 15.8122 8.42828 15.7779 8.43469 15.742C8.45137 15.6522 8.46228 15.5611 8.46228 15.4681C8.46228 15.4678 8.46228 15.4671 8.46228 15.4668V15.4665V7.72185C8.46228 7.72153 8.46228 7.72121 8.46228 7.72057V5.77358C8.46228 5.61128 8.45009 5.45925 8.43084 5.31362C8.42892 5.29983 8.42796 5.2854 8.42603 5.2716C8.4193 5.22541 8.41064 5.18115 8.40198 5.13657C9.04605 5.1186 9.62566 5.32741 10.2351 5.55226C10.568 5.67511 10.9122 5.80181 11.2791 5.89515C11.6076 5.97887 11.937 6.02121 12.2735 6.02121C12.7947 6.02121 13.3349 5.91536 13.9103 5.71072C13.9106 5.73253 13.9148 5.75113 13.9148 5.77326V7.05628H10.3842V13.7921H13.9154V15.4662C13.9154 15.9582 13.5151 16.3585 13.0234 16.3585Z" fill="#56A2BE" stroke="#56A2BE" stroke-width="0.2"/>
</svg>
