<svg width="20" height="16" viewBox="0 0 20 16" fill="none" xmlns="http://www.w3.org/2000/svg">
<path d="M19.9494 9.74817C19.9244 9.70606 19.8915 9.67186 19.855 9.64364C19.8326 9.57768 19.7988 9.51628 19.7436 9.47112C19.6564 9.39988 19.5409 9.37056 19.4314 9.394C19.4082 9.39785 17.1393 9.83565 14.4853 8.41754C13.984 8.14962 13.5037 7.70138 13.0382 7.15551L13.0186 7.10629L13.0015 7.11309C12.5748 6.6072 12.1605 6.01982 11.7536 5.41387L11.496 4.84729L11.4045 4.8888C11.3468 4.80132 11.2892 4.71374 11.2318 4.62647C9.83932 2.50904 8.52421 0.509033 6.75832 0.509033C4.89572 0.509033 1.24307 3.09257 0.258793 6.27596C-0.302911 8.09259 -0.223653 10.7701 3.34385 13.2092C5.83737 14.914 8.42659 15.4909 10.7908 15.4909C15.7103 15.4909 19.6523 12.9914 19.7104 12.9539C19.8171 12.8847 19.8816 12.7663 19.8816 12.6391V10.2047C20.0041 10.0868 20.0399 9.9009 19.9494 9.74817ZM6.75832 1.25909C7.67146 1.25909 8.54045 2.12493 9.38245 3.25484L3.68696 5.91265L4.00409 6.59228L9.82653 3.8752C10.0883 4.25383 10.3477 4.64717 10.6052 5.03869C10.6411 5.09339 10.6774 5.14829 10.7134 5.20309L6.6886 7.03251L6.99893 7.71528L11.1336 5.83583C11.5024 6.38495 11.8789 6.92159 12.2708 7.40546L8.57272 8.88466L8.85119 9.58093L12.7937 8.004C13.2171 8.45235 13.6601 8.82671 14.1321 9.0789C14.2365 9.13471 14.3397 9.18545 14.443 9.23609L11.6051 9.94565L11.7872 10.6733L15.5145 9.74137L15.4996 9.6816C16.582 10.065 17.5415 10.1896 18.2582 10.2112C15.2839 11.5435 7.31891 14.055 0.996467 6.47872C0.993321 6.47497 0.988653 6.47344 0.985405 6.46979C1.93365 3.4581 5.33757 1.25909 6.75832 1.25909ZM19.1316 12.4281C17.9144 13.1423 10.4492 17.1593 3.76713 12.5902C1.57248 11.0897 0.557658 9.30155 0.787921 7.37582C4.2304 11.2609 8.14375 12.3944 11.5246 12.3944C14.9733 12.3944 17.865 11.2236 19.1316 10.617V12.4281Z" fill="#56A2BE" stroke="#56A2BE" stroke-width="0.5"/>
</svg>
