<svg width="117" height="148" viewBox="0 0 117 148" fill="none" xmlns="http://www.w3.org/2000/svg">
<path d="M113.118 91.3229C112.59 87.1648 109.324 77.7997 109.324 77.7997L106.183 59.594C106.183 59.594 106.048 47.3678 106.317 44.3828C106.577 41.3883 106.971 35.2847 103.301 30.0776C99.6318 24.8801 88.6332 24.3556 88.6332 24.3556C88.6332 24.3556 81.9572 21.628 77.1063 19.0245C72.265 16.4209 70.0365 12.2629 70.0365 12.2629L69.2488 1.47681L58.5 1.59125L47.7511 1.47681L46.9635 12.2724C46.9635 12.2724 44.7349 16.4305 39.8936 19.034C35.0523 21.6376 28.3667 24.3651 28.3667 24.3651C28.3667 24.3651 17.3682 24.8896 13.6988 30.0872C10.0294 35.2847 10.4232 41.3978 10.6826 44.3923C10.9419 47.3869 10.817 59.6035 10.817 59.6035L7.68557 77.7997C7.68557 77.7997 4.41001 87.1648 3.8913 91.3229C3.36299 95.4809 1.14406 123.977 1.5379 126.056C1.93173 128.135 2.97876 130.605 3.37259 132.169C3.76643 133.733 6.25432 143.48 6.51367 144.262C6.77303 145.044 11.6239 145.301 12.402 146.474C13.1897 147.647 15.9369 144.653 17.2433 143.098C18.5497 141.534 20.3844 142.707 20.9127 140.104C21.441 137.5 21.172 136.203 21.0472 133.99C20.9127 131.778 18.8186 130.09 16.9839 129.05C15.1492 128.011 11.7488 127.486 11.6143 120.858C11.4798 114.23 20.9127 96.3964 21.7004 90.6743C22.488 84.9523 21.7004 77.6757 21.9597 77.2847C22.2191 76.8937 27.7232 61.94 27.7232 61.94C27.7232 61.94 30.3455 69.2166 30.9987 71.8201C31.6519 74.4237 33.6211 81.7002 33.6211 81.7002L31.1332 91.6662H57.0783H59.9408H85.886L83.3981 81.7002C83.3981 81.7002 85.3576 74.4237 86.0204 71.8201C86.6736 69.2166 89.296 61.94 89.296 61.94C89.296 61.94 94.8001 76.8937 95.0594 77.2847C95.3188 77.6757 94.5311 84.9523 95.3188 90.6743C96.1065 96.3964 105.53 114.23 105.405 120.858C105.27 127.486 101.87 128.011 100.035 129.05C98.2005 130.09 96.1065 131.778 95.972 133.99C95.8375 136.203 95.5782 137.5 96.1065 140.104C96.6348 142.707 98.4599 141.534 99.7759 143.098C101.082 144.662 103.839 147.647 104.617 146.474C105.405 145.301 110.246 145.044 110.515 144.262C110.774 143.48 113.262 133.733 113.656 132.169C114.05 130.605 115.097 128.135 115.491 126.056C115.865 123.977 113.647 95.4809 113.118 91.3229Z" fill="white" stroke="#56A2BE" stroke-miterlimit="10" stroke-linecap="round" stroke-linejoin="round"/>
</svg>
