<svg width="117" height="150" viewBox="0 0 117 150" fill="none" xmlns="http://www.w3.org/2000/svg">
<path d="M85.4517 148.506C85.4517 147.379 87.0995 141.163 87.0995 141.163C87.0995 141.163 95.3286 138.92 96.7001 127.624C98.0716 116.338 98.8906 101.653 98.8906 101.653C98.8906 101.653 103.558 120.845 103.558 122.545C103.558 124.244 99.9957 127.348 98.3479 131.577C96.7001 135.807 96.7001 134.68 98.0716 136.943C99.4431 139.197 101.634 142.586 103.281 143.713C104.929 144.839 107.948 142.586 108.767 142.586C109.586 142.586 112.063 139.483 113.158 136.38C114.254 133.277 113.158 121.418 115.082 110.132C117.006 98.8464 111.787 86.1376 111.244 83.8844C110.692 81.6312 107.13 61.3029 106.853 56.5C106.577 51.6971 107.406 44.641 107.406 39.5615C107.406 34.4819 103.844 29.679 99.453 25.726C95.0622 21.773 74.4303 14.1141 72.3286 10.2698C70.2269 6.4255 71.2235 1.49414 71.2235 1.49414L58.574 2.86781H58.4161L45.7666 1.49414C45.7666 1.49414 46.773 6.43538 44.6713 10.2797C42.5697 14.1141 21.9378 21.7829 17.5469 25.7359C13.1561 29.6889 9.59413 34.4819 9.59413 39.5713C9.59413 44.6509 10.4131 51.707 10.1467 56.5099C9.87041 61.3128 6.30841 81.6312 5.75586 83.8942C5.20331 86.1277 -0.00647306 98.8366 1.91759 110.122C3.84166 121.408 2.73656 133.267 3.84166 136.37C4.9369 139.473 7.40365 142.576 8.23248 142.576C9.05144 142.576 12.0707 144.839 13.7185 143.703C15.3663 142.567 17.5568 139.187 18.9283 136.934C20.2998 134.67 20.2998 135.807 18.652 131.567C17.0043 127.338 13.4423 124.225 13.4423 122.535C13.4423 120.845 18.1094 101.643 18.1094 101.643C18.1094 101.643 18.9283 116.319 20.2998 127.614C21.6713 138.9 29.9004 141.153 29.9004 141.153C29.9004 141.153 31.5482 147.36 31.5482 148.496" fill="white"/>
<path d="M85.4517 148.506C85.4517 147.379 87.0995 141.163 87.0995 141.163C87.0995 141.163 95.3286 138.92 96.7001 127.624C98.0716 116.338 98.8906 101.653 98.8906 101.653C98.8906 101.653 103.558 120.845 103.558 122.545C103.558 124.244 99.9957 127.348 98.3479 131.577C96.7001 135.807 96.7001 134.68 98.0716 136.943C99.4431 139.197 101.634 142.586 103.281 143.713C104.929 144.839 107.948 142.586 108.767 142.586C109.586 142.586 112.063 139.483 113.158 136.38C114.254 133.277 113.158 121.418 115.082 110.132C117.006 98.8464 111.787 86.1376 111.244 83.8844C110.692 81.6312 107.13 61.3029 106.853 56.5C106.577 51.6971 107.406 44.641 107.406 39.5614C107.406 34.4819 103.844 29.679 99.453 25.726C95.0622 21.773 74.4303 14.1141 72.3286 10.2698C70.2269 6.4255 71.2235 1.49414 71.2235 1.49414L58.574 2.86781H58.4161L45.7666 1.49414C45.7666 1.49414 46.773 6.43538 44.6713 10.2797C42.5697 14.1141 21.9378 21.7829 17.5469 25.7359C13.1561 29.6889 9.59413 34.4819 9.59413 39.5713C9.59413 44.6509 10.4131 51.707 10.1467 56.5099C9.8704 61.3128 6.30841 81.6312 5.75586 83.8942C5.20331 86.1277 -0.00647302 98.8366 1.91759 110.122C3.84166 121.408 2.73656 133.267 3.84166 136.37C4.9369 139.473 7.40365 142.576 8.23248 142.576C9.05144 142.576 12.0707 144.839 13.7185 143.703C15.3663 142.567 17.5568 139.187 18.9283 136.934C20.2998 134.67 20.2998 135.807 18.652 131.567C17.0043 127.338 13.4423 124.225 13.4423 122.535C13.4423 120.845 18.1094 101.643 18.1094 101.643C18.1094 101.643 18.9283 116.319 20.2998 127.614C21.6713 138.9 29.9004 141.153 29.9004 141.153C29.9004 141.153 31.5482 147.36 31.5482 148.496" stroke="#EAEAEA" stroke-miterlimit="10" stroke-linecap="round" stroke-linejoin="round"/>
</svg>
