<svg width="90" height="149" viewBox="0 0 90 149" fill="none" xmlns="http://www.w3.org/2000/svg">
<path d="M77.867 147.52L79.3298 145.06C79.3298 145.06 83.4715 141.37 84.6873 138.411C85.9032 135.451 84.9343 131.022 85.1718 130.042C85.4188 129.052 86.3877 117.724 88.0975 106.395C89.7979 95.067 85.9032 83.4888 85.9032 83.4888L81.7616 58.3722C81.7616 58.3722 82.74 38.1752 78.8359 29.8062C74.9412 21.4373 60.0846 19.7077 57.6528 15.7683C55.221 11.8288 54.4896 1.48047 54.4896 1.48047L44.9904 3.20038L36.4792 1.48047C36.4792 1.48047 35.7478 11.8192 33.316 15.7683C30.8842 19.7077 15.0587 21.4277 11.164 29.8062C7.26937 38.1752 8.23829 58.3722 8.23829 58.3722L4.09666 83.4888C4.09666 83.4888 0.202016 95.067 1.90236 106.395C3.60271 117.724 4.58112 129.052 4.8281 130.042C5.07507 131.031 4.09666 135.461 5.31255 138.411C6.52844 141.37 10.6701 145.06 10.6701 145.06L12.1329 147.52" fill="white"/>
<path d="M77.867 147.52L79.3298 145.06C79.3298 145.06 83.4715 141.37 84.6873 138.411C85.9032 135.451 84.9343 131.022 85.1718 130.042C85.4188 129.052 86.3877 117.724 88.0975 106.395C89.7979 95.067 85.9032 83.4888 85.9032 83.4888L81.7616 58.3722C81.7616 58.3722 82.74 38.1752 78.8359 29.8062C74.9412 21.4373 60.0846 19.7077 57.6528 15.7683C55.221 11.8288 54.4896 1.48047 54.4896 1.48047L44.9904 3.20038L36.4792 1.48047C36.4792 1.48047 35.7478 11.8192 33.316 15.7683C30.8842 19.7077 15.0587 21.4277 11.164 29.8062C7.26937 38.1752 8.23829 58.3722 8.23829 58.3722L4.09666 83.4888C4.09666 83.4888 0.202016 95.067 1.90236 106.395C3.60271 117.724 4.58112 129.052 4.8281 130.042C5.07507 131.031 4.09666 135.461 5.31255 138.411C6.52844 141.37 10.6701 145.06 10.6701 145.06L12.1329 147.52" stroke="#56A2BE" stroke-miterlimit="10" stroke-linecap="round" stroke-linejoin="round"/>
<path d="M15.3437 95.7876C15.3437 95.7876 45.3514 99.2947 74.1433 95.7876C74.1433 95.7876 77.4585 109.518 77.6105 113.323C77.7625 117.138 77.9145 129.033 77.9145 129.033L78.0664 134.981L46.2538 140.774H44.449L11.734 135.586L11.886 126.89C11.886 126.89 11.43 117.897 12.1899 113.928C12.9499 109.96 15.3437 95.7876 15.3437 95.7876Z" fill="#56A2BE" fill-opacity="0.4" stroke="#56A2BE" stroke-miterlimit="10" stroke-linecap="round" stroke-linejoin="round"/>
<path d="M37.2676 132.156C37.2676 132.156 41.5707 136.393 44.9999 137.171C48.4291 137.95 53.8721 132.732 53.8721 132.732" stroke="#56A2BE" stroke-miterlimit="10" stroke-linecap="round" stroke-linejoin="round"/>
<path d="M24.3963 113.477L31.8911 121.558" stroke="#56A2BE" stroke-miterlimit="10" stroke-linecap="round" stroke-linejoin="round"/>
<path d="M58.3652 122.566L63.3618 115.495" stroke="#56A2BE" stroke-miterlimit="10" stroke-linecap="round" stroke-linejoin="round"/>
<path d="M29.5353 24.7329C29.5353 24.7329 39.8609 24.1564 41.3903 24.1564C42.9196 24.1564 44.8289 25.7034 44.8289 25.7034" stroke="#56A2BE" stroke-miterlimit="10" stroke-linecap="round" stroke-linejoin="round"/>
<path d="M63.3713 24.7329C63.3713 24.7329 53.0457 24.1564 51.5164 24.1564C49.987 24.1564 48.0777 25.7034 48.0777 25.7034" stroke="#56A2BE" stroke-miterlimit="10" stroke-linecap="round" stroke-linejoin="round"/>
<path d="M45.8169 33.1595V54.327" stroke="#56A2BE" stroke-miterlimit="10" stroke-linecap="round" stroke-linejoin="round"/>
<path d="M22.4395 59.285C22.4395 59.285 25.4317 59.5637 31.9576 56.806" stroke="#56A2BE" stroke-miterlimit="10" stroke-linecap="round" stroke-linejoin="round"/>
<path d="M67.5699 59.285C67.5699 59.285 64.5777 59.5637 58.0518 56.806" stroke="#56A2BE" stroke-miterlimit="10" stroke-linecap="round" stroke-linejoin="round"/>
<path d="M19.9317 40.0392C19.9317 40.0392 17.5949 49.2826 17.8039 52.9434C18.0129 56.5946 18.8678 59.8231 18.8678 59.8231C18.8678 59.8231 16.1036 87.3417 15.6761 93.5776C15.2486 99.8135 11.639 109.701 11.639 123.037C11.639 136.374 12.1329 147.52 12.1329 147.52" stroke="#56A2BE" stroke-miterlimit="10" stroke-linecap="round" stroke-linejoin="round"/>
<path d="M69.7357 40.0392C69.7357 40.0392 72.0725 49.2826 71.8635 52.9434C71.6545 56.5946 70.7996 59.8231 70.7996 59.8231C70.7996 59.8231 73.5639 87.3417 73.9913 93.5776C74.4188 99.8135 78.0285 109.701 78.0285 123.037C78.0285 136.374 77.8765 147.52 77.8765 147.52" stroke="#56A2BE" stroke-miterlimit="10" stroke-linecap="round" stroke-linejoin="round"/>
<path d="M12.4274 86.0542C12.4274 86.0542 16.1891 92.415 15.3436 95.778" stroke="#56A2BE" stroke-miterlimit="10" stroke-linecap="round" stroke-linejoin="round"/>
<path d="M74.1528 95.7876C74.1528 95.7876 75.0932 88.6773 76.898 84.2286" stroke="#56A2BE" stroke-miterlimit="10" stroke-linecap="round" stroke-linejoin="round"/>
</svg>
