<svg width="298" height="223" viewBox="0 0 298 223" fill="none" xmlns="http://www.w3.org/2000/svg">
<path d="M298 186C298 245.094 166.094 214 107 214C47.9055 214 0 166.094 0 107C0 47.9055 25.5 0 107 0C201 0 298 126.906 298 186Z" fill="#F7F7F7"/>
<g clip-path="url(#clip0_437_15086)">
<path d="M273 33.56L273.21 114.07C273.22 118.57 269.58 122.23 265.09 122.24L137.4 122.57C132.91 122.58 129.25 118.94 129.24 114.44L129.03 33.93C129.02 29.74 132.4 26.34 136.59 26.33L265.4 26C269.59 25.99 272.99 29.37 273 33.56Z" fill="#DBDBDB"/>
<path d="M252.43 102.78C252.44 106.92 249.09 110.28 244.95 110.29C240.81 110.3 237.45 106.95 237.44 102.81C237.43 98.67 240.78 95.31 244.92 95.3C249.05 95.29 252.42 98.64 252.43 102.78Z" fill="#C4C4C4"/>
<path d="M261.66 102.75C261.67 106.89 258.32 110.25 254.18 110.26C250.04 110.27 246.68 106.92 246.67 102.79C246.66 98.65 250.01 95.29 254.15 95.28C258.28 95.27 261.65 98.61 261.66 102.75Z" fill="#56A2BE"/>
<path d="M164.02 58.76L145.4 58.81C143.08 58.82 141.19 56.94 141.19 54.62L141.16 44.35C141.15 42.03 143.03 40.14 145.35 40.14L163.97 40.09C166.29 40.08 168.18 41.96 168.18 44.28L168.21 54.55C168.21 56.87 166.34 58.76 164.02 58.76Z" fill="#56A2BE"/>
<path d="M256.4 50.09L244.17 50.12C241.34 50.13 239.04 47.84 239.03 45.01C239.02 42.18 241.31 39.88 244.14 39.87L256.37 39.84C259.2 39.83 261.5 42.12 261.51 44.95C261.51 47.78 259.23 50.08 256.4 50.09Z" fill="white"/>
<path d="M140.24 75.85L139.13 76.5C139.1 76.52 139.04 76.54 139 76.54C138.9 76.54 138.81 76.48 138.76 76.41C138.68 76.26 138.73 76.11 138.86 76.04L140.37 75.12C140.49 75.05 140.67 75.1 140.74 75.22C140.77 75.29 140.78 75.35 140.77 75.42L140.79 82.62C140.79 82.77 140.68 82.89 140.52 82.89C140.37 82.89 140.25 82.77 140.25 82.62L140.24 75.85Z" fill="#F8F8F8"/>
<path d="M142.72 82.41L146.37 79.1C146.81 78.7 147.04 78.16 147.04 77.6C147.04 77.12 146.86 76.64 146.51 76.26C146.12 75.82 145.57 75.6 145.02 75.6C144.53 75.6 144.05 75.77 143.65 76.12L143.27 76.47C143.16 76.58 142.98 76.57 142.89 76.46C142.78 76.35 142.79 76.17 142.9 76.08L143.28 75.72C143.77 75.28 144.4 75.06 145.01 75.05C145.69 75.05 146.39 75.32 146.89 75.88C147.35 76.37 147.56 76.99 147.57 77.59C147.57 78.28 147.29 78.98 146.74 79.5L143.61 82.34L147.32 82.33C147.47 82.33 147.59 82.45 147.59 82.61C147.59 82.76 147.47 82.88 147.32 82.88L142.95 82.89H142.91C142.83 82.89 142.75 82.87 142.71 82.81C142.61 82.69 142.61 82.52 142.72 82.41Z" fill="#F8F8F8"/>
<path d="M154.06 75.52L152.04 77.61C152.53 77.71 153 77.94 153.39 78.32C153.91 78.83 154.17 79.52 154.17 80.2C154.17 80.88 153.92 81.57 153.39 82.08C152.88 82.6 152.19 82.87 151.51 82.87C150.84 82.87 150.15 82.62 149.64 82.09C149.53 81.99 149.53 81.81 149.64 81.7C149.74 81.59 149.92 81.59 150.03 81.7C150.45 82.1 150.97 82.3 151.51 82.3C152.05 82.3 152.58 82.1 153 81.69C153.41 81.27 153.61 80.74 153.61 80.2C153.61 79.66 153.41 79.13 152.99 78.72C152.59 78.31 152.05 78.11 151.51 78.11C151.42 78.11 151.34 78.07 151.29 78H151.28C151.17 77.89 151.17 77.71 151.28 77.6L153.22 75.59L150.22 75.6C150.06 75.6 149.94 75.48 149.94 75.32C149.94 75.16 150.06 75.04 150.22 75.04L153.88 75.03C154.04 75.03 154.16 75.15 154.16 75.31C154.16 75.35 154.15 75.4 154.13 75.43C154.1 75.46 154.08 75.49 154.06 75.52Z" fill="#F8F8F8"/>
<path d="M160.65 81.23L156.4 81.24H156.39H156.37C156.31 81.24 156.25 81.23 156.2 81.18C156.08 81.09 156.06 80.91 156.17 80.8L160.69 75.14L160.7 75.13C160.8 75.01 160.96 74.99 161.08 75.1C161.12 75.13 161.15 75.19 161.17 75.23C161.17 75.25 161.18 75.26 161.18 75.27V75.3L161.19 80.68H161.72C161.88 80.68 162 80.8 162 80.95C162 81.1 161.88 81.22 161.72 81.22H161.19V82.56C161.19 82.71 161.07 82.83 160.91 82.83C160.76 82.83 160.64 82.71 160.64 82.56L160.65 81.23ZM160.65 80.7L160.64 76.11L156.94 80.71L160.65 80.7Z" fill="#F8F8F8"/>
<path d="M170.48 82.05C170.37 81.94 170.37 81.76 170.48 81.66C170.59 81.55 170.77 81.55 170.88 81.66C171.3 82.06 171.82 82.26 172.36 82.26C172.9 82.26 173.42 82.06 173.84 81.64C174.25 81.22 174.45 80.7 174.45 80.16C174.45 79.61 174.25 79.07 173.84 78.67C173.44 78.27 172.9 78.07 172.36 78.07C171.81 78.07 171.29 78.27 170.87 78.69C170.76 78.8 170.58 78.8 170.48 78.69C170.45 78.67 170.42 78.63 170.41 78.6V78.59C170.4 78.58 170.4 78.57 170.4 78.56C170.39 78.54 170.39 78.5 170.39 78.47C170.39 78.46 170.4 78.44 170.4 78.41L170.77 75.25C170.77 75.16 170.81 75.09 170.88 75.05C170.92 75.01 170.99 74.98 171.06 74.98L174.71 74.97C174.87 74.97 174.99 75.09 174.99 75.25C174.99 75.42 174.87 75.53 174.71 75.53L171.29 75.54L171.02 77.87C171.42 77.63 171.88 77.51 172.35 77.51C173.03 77.51 173.71 77.75 174.22 78.28C174.75 78.79 175 79.47 175 80.16C175 80.83 174.76 81.53 174.23 82.04C173.72 82.55 173.02 82.82 172.35 82.82C171.68 82.82 170.99 82.56 170.48 82.05Z" fill="#F8F8F8"/>
<path d="M177.93 76.68C178.47 75.73 179.37 75.02 180.67 74.97C180.82 74.96 180.94 75.08 180.95 75.23C180.95 75.39 180.83 75.51 180.68 75.52C179.58 75.57 178.89 76.13 178.4 76.95C178.13 77.41 177.95 77.96 177.84 78.52C178.31 77.98 179 77.63 179.78 77.63C181.22 77.63 182.38 78.79 182.39 80.21C182.39 81.64 181.24 82.8 179.8 82.8C178.4 82.8 177.26 81.7 177.21 80.31C177.19 80.14 177.19 79.97 177.19 79.79C177.19 78.75 177.4 77.61 177.93 76.68ZM177.75 80.26C177.75 80.32 177.76 80.36 177.77 80.41C177.77 80.44 177.77 80.47 177.76 80.49C177.9 81.49 178.76 82.26 179.79 82.25C180.93 82.25 181.85 81.33 181.85 80.21C181.85 79.09 180.93 78.17 179.78 78.18C178.66 78.18 177.74 79.1 177.75 80.22V80.26V80.26Z" fill="#F8F8F8"/>
<path d="M185.24 82.4L188.12 75.52L184.33 75.53C184.18 75.53 184.06 75.41 184.06 75.26C184.06 75.11 184.18 74.99 184.33 74.99L188.47 74.98C188.53 74.97 188.58 74.97 188.64 74.99C188.71 75.02 188.76 75.09 188.79 75.16C188.8 75.19 188.81 75.22 188.81 75.25C188.81 75.31 188.8 75.35 188.77 75.4L185.75 82.62C185.71 82.72 185.6 82.79 185.5 82.79C185.46 82.79 185.43 82.79 185.39 82.77C185.27 82.7 185.2 82.54 185.24 82.4Z" fill="#F8F8F8"/>
<path d="M192.97 74.92C193.87 74.92 194.61 75.64 194.61 76.54C194.61 77.09 194.34 77.56 193.94 77.86C194.87 78.24 195.52 79.16 195.53 80.21C195.53 81.62 194.41 82.76 192.99 82.76C191.59 82.76 190.45 81.64 190.44 80.22C190.44 79.17 191.08 78.25 192 77.86C191.61 77.56 191.35 77.09 191.35 76.54C191.35 75.66 192.06 74.93 192.97 74.92ZM192.99 82.23C194.11 82.23 194.99 81.33 194.99 80.22C194.99 79.12 194.1 78.22 192.98 78.22C191.87 78.22 190.98 79.13 190.98 80.23C190.98 81.33 191.88 82.23 192.99 82.23ZM192.98 77.66C193.58 77.65 194.08 77.15 194.07 76.55C194.07 75.95 193.57 75.47 192.97 75.47C192.37 75.47 191.88 75.95 191.89 76.56C191.89 77.15 192.37 77.65 192.98 77.66Z" fill="#F8F8F8"/>
<path d="M206.9 74.89C208.24 74.89 209.33 75.88 209.48 77.17C209.49 77.19 209.49 77.2 209.5 77.23C209.51 77.44 209.52 77.67 209.52 77.9C209.52 78.94 209.3 80.1 208.78 81.03C208.24 81.96 207.33 82.69 206.04 82.74H206.03C205.87 82.74 205.75 82.63 205.75 82.48C205.75 82.32 205.86 82.2 206.02 82.19C207.11 82.14 207.82 81.58 208.3 80.76C208.57 80.29 208.76 79.75 208.86 79.19C208.39 79.73 207.7 80.06 206.91 80.06C205.49 80.06 204.32 78.92 204.32 77.48C204.32 76.05 205.48 74.89 206.9 74.89ZM208.96 77.46C208.96 76.34 208.05 75.44 206.9 75.44C205.78 75.44 204.86 76.35 204.87 77.47C204.87 78.61 205.79 79.51 206.91 79.5C208.06 79.5 208.96 78.6 208.96 77.46Z" fill="#F8F8F8"/>
<path d="M211.5 78.8C211.5 77.75 211.76 76.78 212.24 76.05C212.72 75.35 213.4 74.87 214.2 74.87C214.99 74.87 215.68 75.35 216.16 76.04C216.63 76.77 216.93 77.73 216.93 78.78C216.93 79.83 216.64 80.8 216.18 81.51C215.7 82.22 215.02 82.7 214.22 82.7C213.42 82.7 212.74 82.22 212.26 81.52C211.78 80.81 211.5 79.85 211.5 78.8ZM212.05 78.79C212.05 79.75 212.31 80.62 212.72 81.22C213.12 81.81 213.66 82.16 214.22 82.16C214.78 82.16 215.31 81.81 215.72 81.22C216.12 80.61 216.39 79.75 216.39 78.79C216.39 77.83 216.12 76.96 215.71 76.36C215.29 75.75 214.77 75.42 214.21 75.42C213.65 75.42 213.11 75.75 212.71 76.36C212.3 76.97 212.05 77.83 212.05 78.79Z" fill="#F8F8F8"/>
<path d="M220.55 75.65L219.44 76.3C219.41 76.32 219.35 76.34 219.31 76.34C219.21 76.34 219.12 76.28 219.07 76.21C218.99 76.06 219.04 75.91 219.17 75.84L220.68 74.92C220.8 74.85 220.98 74.9 221.05 75.02C221.08 75.09 221.09 75.15 221.08 75.22L221.1 82.42C221.1 82.57 220.99 82.69 220.83 82.69C220.68 82.69 220.56 82.57 220.56 82.42L220.55 75.65Z" fill="#F8F8F8"/>
<path d="M223.03 82.2L226.68 78.89C227.12 78.49 227.35 77.95 227.35 77.39C227.35 76.91 227.17 76.43 226.82 76.05C226.43 75.61 225.88 75.39 225.33 75.39C224.84 75.39 224.36 75.56 223.96 75.91L223.58 76.26C223.47 76.37 223.29 76.36 223.2 76.25C223.09 76.14 223.1 75.96 223.21 75.87L223.59 75.51C224.08 75.07 224.71 74.85 225.32 74.84C226 74.84 226.7 75.11 227.2 75.68C227.66 76.17 227.87 76.79 227.88 77.39C227.88 78.08 227.6 78.78 227.05 79.3L223.92 82.14L227.63 82.13C227.78 82.13 227.9 82.25 227.9 82.41C227.9 82.56 227.78 82.68 227.63 82.68L223.26 82.69H223.22C223.14 82.69 223.06 82.67 223.02 82.61C222.92 82.48 222.92 82.32 223.03 82.2Z" fill="#F8F8F8"/>
<path d="M241.08 75.29L239.06 77.38C239.55 77.48 240.02 77.71 240.41 78.09C240.93 78.6 241.19 79.29 241.19 79.97C241.19 80.65 240.94 81.34 240.41 81.85C239.9 82.37 239.21 82.64 238.53 82.64C237.86 82.64 237.17 82.39 236.66 81.86C236.55 81.76 236.55 81.58 236.66 81.47C236.76 81.36 236.94 81.36 237.05 81.47C237.47 81.87 237.99 82.07 238.53 82.07C239.07 82.07 239.6 81.87 240.02 81.46C240.43 81.04 240.63 80.51 240.63 79.97C240.63 79.43 240.43 78.9 240.01 78.49C239.61 78.08 239.07 77.88 238.53 77.88C238.44 77.88 238.36 77.84 238.31 77.77H238.3C238.19 77.66 238.19 77.48 238.3 77.37L240.24 75.36L237.24 75.37C237.08 75.37 236.96 75.25 236.96 75.09C236.96 74.93 237.08 74.81 237.24 74.81L240.9 74.8C241.06 74.8 241.18 74.92 241.18 75.08C241.18 75.12 241.17 75.17 241.15 75.2C241.12 75.23 241.1 75.27 241.08 75.29Z" fill="#F8F8F8"/>
<path d="M247.67 81.01L243.43 81.02H243.42H243.4C243.34 81.02 243.28 81.01 243.23 80.96C243.11 80.87 243.09 80.69 243.2 80.58L247.72 74.92L247.73 74.91C247.83 74.79 247.99 74.78 248.11 74.88C248.15 74.91 248.18 74.97 248.2 75.01C248.2 75.03 248.21 75.04 248.21 75.05V75.08L248.22 80.46H248.75C248.91 80.46 249.03 80.58 249.03 80.73C249.03 80.88 248.91 81 248.75 81H248.22V82.34C248.22 82.49 248.1 82.61 247.94 82.61C247.79 82.61 247.67 82.49 247.67 82.34V81.01ZM247.67 80.47L247.66 75.88L243.96 80.48L247.67 80.47Z" fill="#F8F8F8"/>
<path d="M250.78 81.84C250.67 81.73 250.67 81.55 250.78 81.45C250.89 81.34 251.07 81.34 251.18 81.45C251.6 81.85 252.12 82.05 252.66 82.05C253.2 82.05 253.72 81.85 254.14 81.43C254.55 81.01 254.75 80.49 254.75 79.95C254.75 79.4 254.55 78.86 254.14 78.46C253.74 78.06 253.2 77.86 252.66 77.86C252.11 77.86 251.59 78.06 251.17 78.48C251.06 78.59 250.88 78.59 250.78 78.48C250.75 78.46 250.72 78.42 250.71 78.39V78.38C250.7 78.37 250.7 78.36 250.7 78.35C250.69 78.33 250.69 78.29 250.69 78.26C250.69 78.25 250.7 78.23 250.7 78.2L251.07 75.04C251.07 74.95 251.11 74.88 251.18 74.84C251.22 74.8 251.29 74.77 251.36 74.77L255.01 74.76C255.17 74.76 255.29 74.88 255.29 75.04C255.29 75.21 255.17 75.32 255.01 75.32L251.59 75.33L251.32 77.66C251.72 77.42 252.18 77.3 252.65 77.3C253.33 77.3 254.01 77.54 254.52 78.07C255.05 78.58 255.3 79.26 255.3 79.95C255.3 80.62 255.06 81.32 254.53 81.83C254.02 82.34 253.32 82.61 252.65 82.61C251.98 82.61 251.3 82.35 250.78 81.84Z" fill="#F8F8F8"/>
<path d="M258.24 76.47C258.78 75.52 259.68 74.81 260.98 74.76C261.13 74.75 261.25 74.87 261.26 75.02C261.26 75.18 261.14 75.3 260.99 75.31C259.89 75.36 259.2 75.92 258.71 76.74C258.44 77.2 258.26 77.75 258.15 78.31C258.62 77.77 259.31 77.42 260.09 77.42C261.53 77.42 262.69 78.58 262.7 80C262.7 81.43 261.55 82.59 260.11 82.59C258.71 82.59 257.57 81.49 257.52 80.1C257.5 79.93 257.5 79.76 257.5 79.59C257.49 78.54 257.7 77.4 258.24 76.47ZM258.05 80.05C258.05 80.11 258.06 80.15 258.07 80.2C258.07 80.23 258.07 80.26 258.06 80.28C258.2 81.28 259.06 82.05 260.09 82.04C261.23 82.04 262.15 81.12 262.15 80C262.15 78.88 261.23 77.96 260.08 77.97C258.96 77.97 258.04 78.89 258.05 80.01V80.05V80.05Z" fill="#F8F8F8"/>
<path d="M209.656 96.1715L141.286 96.349L141.295 99.709L209.665 99.5315L209.656 96.1715Z" fill="#C4C4C4"/>
<path d="M189.706 103.677L141.306 103.803L141.314 107.163L189.714 107.037L189.706 103.677Z" fill="#C4C4C4"/>
<path d="M234.326 39.9058L200.226 39.9943L200.235 43.3543L234.335 43.2658L234.326 39.9058Z" fill="#C4C4C4"/>
<path d="M91.88 132.7H18V206.58H91.88V132.7Z" fill="#EBEBEB"/>
<path d="M56.1698 144.56C57.5698 144.56 58.6798 145.67 58.6798 147.07V148.36C62.1298 148.77 65.0498 149.88 67.7298 151.57C68.6598 152.1 69.4798 152.97 69.4798 154.37C69.4798 156.18 68.0198 157.58 66.2098 157.58C65.6298 157.58 65.0398 157.4 64.4598 157.05C62.4198 155.82 60.4298 154.95 58.4398 154.48V165.69C67.3198 167.91 71.1198 171.47 71.1198 177.72C71.1198 184.15 66.0998 188.41 58.6798 189.11V192.61C58.6798 194.01 57.5698 195.12 56.1698 195.12C54.7698 195.12 53.5998 194.01 53.5998 192.61V188.99C49.2198 188.52 45.1898 186.95 41.6298 184.43C40.6398 183.79 40.0498 182.85 40.0498 181.63C40.0498 179.82 41.4498 178.42 43.2598 178.42C43.9598 178.42 44.6598 178.65 45.1898 179.06C47.9398 181.05 50.6198 182.39 53.8298 182.97V171.46C45.2998 169.24 41.3298 166.03 41.3298 159.43C41.3298 153.18 46.2898 148.86 53.5998 148.27V147.04C53.5998 145.67 54.7698 144.56 56.1698 144.56ZM53.8298 164.47V154.13C50.0898 154.48 48.2198 156.47 48.2198 159.04C48.2198 161.5 49.3298 163.01 53.8298 164.47ZM58.4498 172.59V183.22C62.1898 182.81 64.2298 180.94 64.2298 178.14C64.2298 175.57 62.9398 174 58.4498 172.59Z" fill="white"/>
<path d="M199.81 208.35H72.9702C69.5102 208.35 66.7002 205.54 66.7002 202.08V75.24C66.7002 71.78 69.5102 68.97 72.9702 68.97H199.82C203.28 68.97 206.09 71.78 206.09 75.24V202.09C206.08 205.55 203.28 208.35 199.81 208.35Z" fill="white"/>
<path d="M136.39 150.05C148.33 150.05 158.01 140.37 158.01 128.43C158.01 116.49 148.33 106.81 136.39 106.81C124.45 106.81 114.77 116.49 114.77 128.43C114.77 140.37 124.45 150.05 136.39 150.05Z" fill="#56A2BE"/>
<path d="M124.09 132.3C125.37 133.42 126.53 134.63 127.7 135.83C128.85 137.05 129.97 138.29 131.05 139.55H129.14C131.98 135.25 135.05 131.12 138.27 127.1C139.88 125.09 141.56 123.14 143.27 121.21C145 119.29 146.78 117.41 148.7 115.64C147.52 117.97 146.2 120.2 144.83 122.38C143.44 124.56 142.03 126.71 140.53 128.81C137.55 133.01 134.42 137.09 131.06 141L129.98 142.26L129.15 141C128.23 139.61 127.36 138.19 126.5 136.75C125.65 135.29 124.81 133.84 124.09 132.3Z" fill="white"/>
<path d="M136.58 171.71H88.1498C86.0398 171.71 84.3198 170 84.3198 167.88C84.3198 165.77 86.0298 164.05 88.1498 164.05H136.58C138.69 164.05 140.41 165.76 140.41 167.88C140.41 170 138.7 171.71 136.58 171.71Z" fill="#D8D8D8"/>
<path d="M173.92 171.71H148.02C145.91 171.71 144.19 170 144.19 167.88C144.19 165.77 145.9 164.05 148.02 164.05H173.92C176.03 164.05 177.75 165.76 177.75 167.88C177.75 170 176.04 171.71 173.92 171.71Z" fill="#D8D8D8"/>
<path d="M153.47 183.22H111.37C109.26 183.22 107.54 181.51 107.54 179.39C107.54 177.28 109.25 175.56 111.37 175.56H153.47C155.58 175.56 157.3 177.27 157.3 179.39C157.3 181.51 155.59 183.22 153.47 183.22Z" fill="#D8D8D8"/>
<path d="M247.57 55.88C247.57 55.88 247.42 55.91 247.17 55.98C247.18 55.93 247.21 55.89 247.24 55.86H247.25C247.45 55.88 247.57 55.88 247.57 55.88Z" fill="#263238"/>
</g>
<defs>
<clipPath id="clip0_437_15086">
<rect width="255.21" height="182.35" fill="white" transform="translate(18 26)"/>
</clipPath>
</defs>
</svg>
