<svg width="147" height="37" viewBox="0 0 147 37" fill="none" xmlns="http://www.w3.org/2000/svg">
<g clip-path="url(#clip0_342_12010)">
<path d="M49.7709 22.0025C49.7709 22.6351 49.9097 23.2214 50.1872 23.7461C50.4647 24.2707 50.8348 24.7181 51.2819 25.0884C51.729 25.4587 52.2533 25.7519 52.8546 25.9525C53.4559 26.1531 54.0727 26.2611 54.7048 26.2611C55.5683 26.2611 56.3238 26.0605 56.9559 25.6593C57.5881 25.2581 58.174 24.7335 58.7136 24.0701L60.8105 25.6747C59.2687 27.6651 57.1101 28.6681 54.3348 28.6681C53.1784 28.6681 52.1453 28.4675 51.2048 28.0817C50.2643 27.696 49.4779 27.156 48.8304 26.4616C48.1828 25.7673 47.6894 24.965 47.3348 24.0238C46.9802 23.0826 46.8105 22.0797 46.8105 20.9842C46.8105 19.8887 46.9956 18.8858 47.381 17.9445C47.7665 17.0033 48.2907 16.201 48.9537 15.5067C49.6167 14.8278 50.4185 14.2878 51.3436 13.8866C52.2687 13.5008 53.2709 13.3003 54.3656 13.3003C55.6608 13.3003 56.7555 13.5317 57.6498 13.9792C58.544 14.4266 59.2841 15.0284 59.8546 15.7536C60.4251 16.4787 60.8414 17.3119 61.1035 18.2223C61.3656 19.1326 61.489 20.0738 61.489 21.015V22.0025H49.7709ZM58.5286 19.7807C58.5132 19.1635 58.4053 18.5926 58.2357 18.0834C58.0661 17.5742 57.8039 17.1268 57.4493 16.741C57.0947 16.3553 56.663 16.0621 56.1387 15.8461C55.6145 15.6301 54.9978 15.5221 54.3039 15.5221C53.6255 15.5221 53.0088 15.6456 52.4383 15.9079C51.8678 16.1702 51.3898 16.4942 51.0044 16.9108C50.6189 17.3274 50.3105 17.7748 50.0947 18.284C49.8788 18.7932 49.7709 19.2869 49.7709 19.7807H58.5286V19.7807Z" fill="#162232"/>
<path d="M64.8808 15.4604C65.6671 14.7352 66.5614 14.1952 67.5944 13.8403C68.6275 13.4854 69.6451 13.3003 70.6781 13.3003C71.742 13.3003 72.6671 13.4391 73.4381 13.7014C74.209 13.9637 74.8411 14.334 75.3345 14.7815C75.8279 15.229 76.198 15.7536 76.4292 16.3399C76.6605 16.9262 76.7839 17.5434 76.7839 18.176V25.6439C76.7839 26.1531 76.7993 26.6314 76.8147 27.0634C76.8301 27.4954 76.861 27.912 76.9072 28.2978H74.4403C74.3786 27.5571 74.3477 26.8165 74.3477 26.0759H74.2861C73.6693 27.0171 72.9447 27.696 72.0966 28.0817C71.2486 28.4675 70.2773 28.6681 69.1671 28.6681C68.4887 28.6681 67.8411 28.5755 67.2244 28.3903C66.6077 28.2052 66.068 27.9275 65.6055 27.5571C65.1429 27.1868 64.7729 26.7239 64.5107 26.1839C64.2486 25.6439 64.1099 25.0113 64.1099 24.2861C64.1099 23.3449 64.3257 22.5425 64.742 21.9099C65.1583 21.2773 65.7442 20.7527 66.4689 20.3516C67.1936 19.9504 68.057 19.6572 69.0284 19.4875C69.9997 19.3178 71.0482 19.2252 72.1583 19.2252H74.1936V18.608C74.1936 18.2377 74.1165 17.8674 73.9777 17.4971C73.8389 17.1268 73.6231 16.7873 73.3301 16.4942C73.0372 16.201 72.6825 15.9541 72.2508 15.7844C71.8191 15.6147 71.3103 15.5221 70.709 15.5221C70.1693 15.5221 69.7068 15.5684 69.3059 15.6764C68.905 15.7844 68.535 15.9079 68.2112 16.0621C67.8874 16.2164 67.579 16.4016 67.3169 16.6022C67.0548 16.8028 66.7927 17.0033 66.546 17.1885L64.8808 15.4604ZM72.7134 21.2619C72.0504 21.2619 71.3874 21.2928 70.6936 21.3699C69.9997 21.4471 69.383 21.5859 68.8125 21.7865C68.242 21.9871 67.7795 22.2802 67.4248 22.6506C67.0702 23.0209 66.8852 23.4992 66.8852 24.0701C66.8852 24.9187 67.1627 25.5204 67.7332 25.8908C68.3037 26.2611 69.0592 26.4462 70.0306 26.4462C70.7861 26.4462 71.4336 26.3228 71.9733 26.0605C72.5129 25.7982 72.9447 25.4742 73.2685 25.0576C73.5922 24.641 73.8389 24.1935 73.9777 23.6843C74.1165 23.1752 74.1936 22.6814 74.1936 22.1877V21.2619H72.7134V21.2619Z" fill="#162232"/>
<path d="M81.0396 4.96832H83.8149V28.2978H81.0396V4.96832Z" fill="#162232"/>
<path d="M95.9956 17.3428C95.6718 16.9262 95.2555 16.5868 94.7776 16.309C94.2996 16.0313 93.6983 15.8924 93.0044 15.8924C92.3414 15.8924 91.7709 16.0313 91.293 16.309C90.815 16.5868 90.5683 16.9879 90.5683 17.528C90.5683 17.96 90.7071 18.3149 90.9846 18.5772C91.2621 18.8395 91.5859 19.0555 91.9714 19.2252C92.3569 19.3949 92.7577 19.5184 93.1895 19.5955C93.6212 19.6727 93.9912 19.7498 94.2996 19.8115C94.9009 19.9504 95.456 20.1355 95.9802 20.3361C96.5044 20.5367 96.9516 20.8144 97.337 21.1385C97.7225 21.4625 98.0154 21.8636 98.2313 22.342C98.4472 22.8203 98.5551 23.3912 98.5551 24.0701C98.5551 24.8878 98.3855 25.5976 98.0309 26.1839C97.6762 26.7702 97.2291 27.2486 96.674 27.6189C96.119 27.9892 95.4868 28.2515 94.7776 28.4212C94.0683 28.5909 93.3591 28.6681 92.6344 28.6681C91.4163 28.6681 90.3524 28.4829 89.4428 28.1126C88.5331 27.7423 87.7159 27.0634 86.9912 26.0759L89.0881 24.3478C89.5353 24.7953 90.0441 25.1964 90.5991 25.5513C91.1542 25.9062 91.8326 26.0759 92.6344 26.0759C92.989 26.0759 93.3436 26.045 93.6983 25.9679C94.0529 25.8908 94.3767 25.7827 94.6542 25.6285C94.9317 25.4742 95.163 25.2736 95.3326 25.0421C95.5022 24.8107 95.5947 24.533 95.5947 24.2244C95.5947 23.8078 95.4714 23.4683 95.2093 23.206C94.9472 22.9437 94.6388 22.7277 94.2842 22.5734C93.9295 22.4191 93.5441 22.2957 93.1432 22.2031C92.7423 22.1105 92.3877 22.0334 92.0793 21.9717C91.478 21.8328 90.9229 21.6631 90.3833 21.4779C89.8436 21.2928 89.3811 21.0459 88.9648 20.7373C88.5485 20.4287 88.2247 20.043 87.978 19.5646C87.7313 19.0863 87.608 18.5 87.608 17.8057C87.608 17.0496 87.7621 16.3862 88.0859 15.8153C88.4097 15.2444 88.826 14.7815 89.3502 14.4112C89.8745 14.0409 90.4758 13.7631 91.1388 13.578C91.8018 13.3928 92.4802 13.3003 93.1586 13.3003C94.1454 13.3003 95.0859 13.4854 95.9956 13.8557C96.9053 14.226 97.6146 14.8432 98.1542 15.7073L95.9956 17.3428Z" fill="#162232"/>
<path d="M101.901 13.6706H104.676V15.769H104.738C105.278 14.9821 106.002 14.3803 106.943 13.9483C107.883 13.5163 108.839 13.3003 109.826 13.3003C110.952 13.3003 111.985 13.5008 112.894 13.8866C113.804 14.2723 114.59 14.8278 115.238 15.5221C115.885 16.2164 116.379 17.0342 116.733 17.9754C117.088 18.9166 117.258 19.9195 117.258 20.9842C117.258 22.0797 117.088 23.0826 116.733 24.0238C116.379 24.965 115.885 25.7673 115.238 26.4616C114.59 27.156 113.804 27.696 112.894 28.0817C111.985 28.4675 110.952 28.6681 109.826 28.6681C108.778 28.6681 107.791 28.4521 106.866 28.0046C105.941 27.5571 105.231 26.9554 104.738 26.1993H104.692V37H101.916V13.6706H101.901ZM109.487 15.8924C108.747 15.8924 108.084 16.0159 107.482 16.2782C106.881 16.5405 106.388 16.8799 105.971 17.3274C105.555 17.7748 105.247 18.2994 105.015 18.932C104.784 19.5647 104.676 20.2435 104.676 20.9842C104.676 21.7248 104.784 22.4037 105.015 23.0363C105.247 23.6689 105.555 24.1935 105.971 24.641C106.388 25.0884 106.881 25.4279 107.482 25.6902C108.084 25.9525 108.747 26.0759 109.487 26.0759C110.227 26.0759 110.89 25.9525 111.491 25.6902C112.093 25.4279 112.586 25.0884 113.002 24.641C113.419 24.1935 113.727 23.6689 113.958 23.0363C114.189 22.4037 114.297 21.7248 114.297 20.9842C114.297 20.2435 114.189 19.5647 113.958 18.932C113.727 18.2994 113.419 17.7748 113.002 17.3274C112.586 16.8799 112.093 16.5405 111.491 16.2782C110.905 16.0313 110.227 15.8924 109.487 15.8924Z" fill="#162232"/>
<path d="M120.048 20.9842C120.048 19.9195 120.249 18.9166 120.65 17.9908C121.051 17.0651 121.606 16.2473 122.299 15.553C122.993 14.8586 123.826 14.3032 124.766 13.902C125.707 13.5008 126.725 13.3003 127.819 13.3003C128.914 13.3003 129.932 13.5008 130.872 13.902C131.813 14.3032 132.645 14.8586 133.339 15.553C134.033 16.2473 134.588 17.0651 134.989 17.9908C135.39 18.9166 135.59 19.9195 135.59 20.9842C135.59 22.0488 135.39 23.0517 134.989 23.9929C134.588 24.9341 134.033 25.7365 133.339 26.4308C132.645 27.1251 131.813 27.6652 130.872 28.0663C129.932 28.4675 128.914 28.6681 127.819 28.6681C126.725 28.6681 125.707 28.4675 124.766 28.0663C123.826 27.6652 122.993 27.1251 122.299 26.4308C121.606 25.7365 121.051 24.9341 120.65 23.9929C120.233 23.0672 120.048 22.0642 120.048 20.9842ZM123.009 20.9842C123.009 21.7248 123.117 22.4037 123.348 23.0363C123.579 23.6689 123.888 24.1935 124.304 24.641C124.72 25.0884 125.214 25.4279 125.815 25.6902C126.416 25.9525 127.079 26.0759 127.819 26.0759C128.559 26.0759 129.222 25.9525 129.824 25.6902C130.425 25.4279 130.918 25.0884 131.335 24.641C131.751 24.1935 132.059 23.6689 132.291 23.0363C132.522 22.4037 132.63 21.7248 132.63 20.9842C132.63 20.2435 132.522 19.5647 132.291 18.932C132.059 18.2994 131.751 17.7748 131.335 17.3274C130.918 16.8799 130.425 16.5405 129.824 16.2782C129.222 16.0159 128.559 15.8924 127.819 15.8924C127.079 15.8924 126.416 16.0159 125.815 16.2782C125.214 16.5405 124.72 16.8799 124.304 17.3274C123.888 17.7748 123.579 18.2994 123.348 18.932C123.117 19.5647 123.009 20.2435 123.009 20.9842Z" fill="#162232"/>
<path d="M146.908 16.0776H142.93V22.7123C142.93 23.1289 142.945 23.53 142.96 23.9312C142.976 24.3324 143.053 24.6872 143.192 25.0113C143.331 25.3353 143.531 25.5822 143.808 25.7827C144.086 25.9833 144.487 26.0759 145.027 26.0759C145.35 26.0759 145.69 26.045 146.044 25.9833C146.399 25.9216 146.707 25.8136 147 25.6439V28.1743C146.676 28.3595 146.245 28.4829 145.72 28.5601C145.196 28.6372 144.795 28.6681 144.502 28.6681C143.438 28.6681 142.606 28.5138 142.02 28.2206C141.434 27.9275 141.002 27.5417 140.725 27.0634C140.447 26.5851 140.278 26.0605 140.231 25.4742C140.185 24.8878 140.154 24.3015 140.154 23.6998V16.0776H136.947V13.6706H140.154V9.56631H142.93V13.6706H146.908V16.0776V16.0776Z" fill="#162232"/>
<path d="M1.88082 29.3778C-0.231511 27.7577 -0.632392 24.7181 1.00197 22.6043L16.7134 2.16016C18.3324 0.046311 21.3698 -0.354857 23.4821 1.28067C25.5945 2.90077 25.9954 5.94039 24.361 8.05423L8.64955 28.4829C7.0306 30.5968 3.99316 30.9979 1.88082 29.3778Z" fill="#6AC0D8"/>
<path d="M36.6497 30.3807C33.9823 30.3807 31.8237 28.2206 31.8237 25.5513V4.84488C31.8237 2.17558 33.9823 0.0154419 36.6497 0.0154419C39.3171 0.0154419 41.4757 2.17558 41.4757 4.84488V25.5513C41.4757 28.2052 39.3171 30.3807 36.6497 30.3807Z" fill="#438191"/>
<path d="M17.9931 29.1001C15.8808 27.48 15.4799 24.4404 17.1143 22.3265L32.8103 1.88242C34.4293 -0.231429 37.4667 -0.632597 39.579 1.00293C41.6914 2.62303 42.0922 5.66265 40.4579 7.77649L24.7618 28.2206C23.1429 30.3345 20.1055 30.7202 17.9931 29.1001Z" fill="#59A2BD"/>
</g>
<defs>
<clipPath id="clip0_342_12010">
<rect width="147" height="37" fill="white"/>
</clipPath>
</defs>
</svg>
