<svg width="145" height="100" viewBox="0 0 145 100" fill="none" xmlns="http://www.w3.org/2000/svg">
<g clip-path="url(#clip0_234_1626)">
<path d="M123.086 97.8125L10.2904 46.5594L21.0833 14.0183L139.444 64.3542L125.632 96.8307C125.448 97.2644 125.049 97.6203 124.554 97.8116C124.06 98.0029 123.521 98.0094 123.086 97.8125Z" fill="white" stroke="#EAEAEA"/>
<path d="M7.52146 45.799L20.2604 15.8445L136.741 65.3808L124.002 95.3353C123.454 96.6232 121.959 97.2244 120.659 96.6715L8.87764 49.1335C7.57773 48.5806 6.97376 47.0868 7.52146 45.799Z" fill="white" stroke="#EAEAEA"/>
<path d="M136.72 64.7689L136.72 64.769C134.987 67.6717 132.987 70.0813 130.915 71.5339C128.85 72.9812 126.774 73.4439 124.798 72.6036C122.8 71.7542 121.652 70.0405 121.316 67.7425C120.977 65.4257 121.473 62.5311 122.788 59.4388C124.09 56.3754 126.125 53.9893 128.339 52.5981C130.554 51.2057 132.902 50.8319 134.897 51.6801C137.021 52.5836 138.609 53.8709 139.138 55.8373C139.673 57.8233 139.174 60.6609 136.72 64.7689Z" fill="white" stroke="#EAEAEA"/>
<path d="M25.1861 3.12066C25.1888 3.1211 25.1914 3.12153 25.1938 3.12194L134.722 49.7017L124.954 72.6703L15.4401 26.0965C15.4111 26.072 15.368 26.0341 15.3135 25.9821C15.1978 25.8717 15.0312 25.6982 14.8413 25.4559C14.462 24.9718 13.9887 24.2121 13.6426 23.1295C12.9533 20.9732 12.7496 17.4733 14.9121 12.2293C17.1077 6.90542 19.7529 4.6666 21.7778 3.73438C22.7955 3.26588 23.6749 3.11848 24.2919 3.086C24.6008 3.06974 24.8442 3.08228 25.0063 3.09799C25.0874 3.10585 25.1479 3.11448 25.1861 3.12066Z" fill="white" stroke="#EAEAEA"/>
<path d="M127.456 51.779L127.456 51.779C119.293 54.2234 110.658 53.2983 102.509 51.72C89.4779 49.1981 76.859 45.0341 64.312 40.8911M127.456 51.779L44.0649 33.4677L43.8949 33.9379C50.6581 36.3837 57.4874 38.6382 64.3088 40.8901L64.312 40.8911M127.456 51.779C129.618 51.1302 131.694 50.2624 133.714 49.2731L127.456 51.779ZM64.312 40.8911L64.4688 40.4163L64.3121 40.8911L64.312 40.8911ZM13.1595 19.4324C13.0015 19.3617 12.8429 19.292 12.6836 19.2235C12.6586 19.3987 12.6371 19.5709 12.6189 19.7403C12.7798 19.8103 12.9401 19.8815 13.0998 19.9538C13.1161 19.7833 13.1359 19.6095 13.1595 19.4324ZM124.878 74.3256L125.073 73.8649L124.613 73.6692L124.418 74.1299L124.878 74.3256ZM15.0784 27.1014C15.0696 27.0929 15.058 27.0814 15.0438 27.067L14.9581 27.0305L14.7624 27.4906C15.096 27.1182 15.0962 27.1184 15.0964 27.1186L15.095 27.1172L15.0784 27.1014ZM134.729 49.7048L135.188 49.9L135.384 49.4398L134.923 49.2454L134.729 49.7048Z" fill="#EAEAEA" stroke="#EAEAEA"/>
<path d="M15.1019 27.1228L15.1009 27.1219L15.1012 27.1221L15.1015 27.1224L15.1019 27.1228ZM15.047 27.0683C15.0274 27.0481 15.0029 27.0223 14.9742 26.9909C14.8859 26.8941 14.7582 26.7443 14.6101 26.541C14.4688 26.3471 14.3092 26.105 14.1476 25.814L124.861 72.8978L124.546 73.6391L15.047 27.0683Z" fill="white" stroke="#EAEAEA"/>
<path d="M122.367 72.6366L122.367 72.6367C123.097 73.1663 125.93 74.9309 129.179 73.6127L129.18 73.6127C131.641 72.6144 133.679 70.3505 135.124 68.2653C135.841 67.2308 136.4 66.2577 136.781 65.539C137.144 64.855 137.341 64.4107 137.36 64.3685C137.361 64.3668 137.361 64.3657 137.362 64.3654C137.421 64.2127 137.476 64.0609 137.528 63.9094L138.499 64.0273C138.516 64.212 138.632 64.3823 138.817 64.4609C139.084 64.5748 139.389 64.4501 139.5 64.1892C140.791 61.1543 141.185 58.001 140.62 55.7611L140.62 55.7609C140.074 53.5954 138.666 51.6725 136.761 50.4904L136.761 50.4904C134.857 49.309 132.506 48.8993 130.318 49.3672C128.238 49.8134 126.179 51.0922 124.537 52.9966L122.367 72.6366ZM122.367 72.6366C121.363 71.9089 120.188 70.6452 119.691 68.5014M122.367 72.6366L119.691 68.5014M125.332 53.6741L125.332 53.674C126.804 51.9691 128.648 50.7869 130.546 50.3811L125.332 53.6741ZM125.332 53.6741C124.123 55.0753 123.111 56.8488 122.137 59.2272L122.137 59.2273M125.332 53.6741L122.137 59.2273M122.137 59.2273C120.543 63.1222 120.258 65.9163 120.631 67.9268C121.007 69.9532 122.042 71.1346 122.971 71.8067C123.27 72.0231 125.836 73.8461 128.78 72.6511C130.874 71.8021 132.677 69.8606 133.985 68.0688C135.299 66.268 136.175 64.5319 136.389 63.9848C137.143 62.0629 137.194 60.2814 136.453 58.7354L136.453 58.735M122.137 59.2273L136.453 58.735M136.453 58.735C135.733 57.2364 134.35 56.2275 133.262 55.8815L133.262 55.8814M136.453 58.735L133.262 55.8814M133.262 55.8814C132.373 55.5991 131.279 55.9084 130.387 56.4229C129.481 56.9451 128.634 57.7619 128.27 58.6987L128.27 58.6989L133.262 55.8814ZM128.742 65.7315L128.758 65.7328L128.816 65.7242C129.75 65.5835 130.605 64.8847 131.21 63.928L131.211 63.9279C131.955 62.7506 132.288 61.34 132.154 59.9538L132.154 59.9537C132.126 59.67 132.333 59.4183 132.62 59.3916C132.909 59.3646 133.164 59.5761 133.192 59.8606L133.192 59.8608C133.349 61.4731 132.958 63.115 132.095 64.4819L132.095 64.4821C131.267 65.793 130.151 66.5711 128.979 66.7475C128.33 66.845 127.35 66.6681 126.718 65.8853C126.226 65.2745 125.978 64.3848 126.057 63.1227C126.135 61.8581 126.539 60.2677 127.295 58.3199L127.295 58.3199C127.705 57.2646 128.684 56.2065 129.89 55.512C131.098 54.817 132.444 54.5368 133.571 54.896L133.572 54.8962C134.808 55.2882 136.479 56.3937 137.393 58.2975L137.393 58.2977C137.872 59.2949 138.286 60.8572 137.806 62.9423L138.759 63.2346C139.748 60.6734 140.098 57.9509 139.608 56.0076L139.608 56.0075C139.126 54.0986 137.89 52.4104 136.212 51.3697C135.883 51.1638 135.539 50.9857 135.183 50.8343C133.731 50.2169 132.095 50.0491 130.546 50.381L128.742 65.7315ZM128.742 65.7315C128.721 65.7331 128.694 65.7345 128.663 65.735C128.586 65.7364 128.48 65.7328 128.359 65.7122C128.12 65.6714 127.786 65.5566 127.533 65.2428C127.533 65.2427 127.533 65.2427 127.533 65.2426L127.922 64.9288L128.742 65.7315ZM119.691 68.5014C119.191 66.3488 119.361 63.2499 121.169 58.8325M119.691 68.5014L121.169 58.8325M121.169 58.8325C122.203 56.3074 123.274 54.4613 124.537 52.9966L121.169 58.8325Z" fill="white" stroke="#EAEAEA"/>
<g opacity="0.16">
<path opacity="0.16" d="M41.3676 15.3364L41.3677 15.3364C47.5361 17.2069 53.5049 19.6927 59.4472 22.1674C62.0352 23.2452 64.6182 24.3209 67.2104 25.3427L67.2105 25.3428C70.3959 26.5994 73.6123 27.7799 76.8531 28.8867C77.1802 28.9983 77.5714 29.0565 77.8683 29.0173C78.0145 28.998 78.1049 28.9595 78.1541 28.9237C78.1916 28.8964 78.2164 28.8647 78.2284 28.7999L41.3676 15.3364ZM41.3676 15.3364C39.1603 14.6672 36.9267 14.0764 34.7036 13.4884C34.0431 13.3137 33.3835 13.1392 32.7258 12.963C29.8485 12.1921 26.9991 11.386 24.2205 10.3723C23.3975 10.0717 22.6497 9.77098 22.0669 9.27056C21.4878 8.77337 21.1381 8.0697 21.2257 7.43347L41.3676 15.3364ZM40.3124 11.2198L40.079 11.6616C36.1256 9.57285 32.228 7.54962 28.0188 6.15893L28.0185 6.15883C26.9998 5.82154 25.3239 5.42022 23.8725 5.50036C23.148 5.54037 22.527 5.69811 22.0732 5.99942C21.6393 6.28743 21.3231 6.72845 21.2257 7.4333L40.3124 11.2198ZM40.3124 11.2198L40.079 11.6616M40.3124 11.2198L40.079 11.6616M77.7289 28.1336C76.5005 27.246 75.0155 26.7852 73.4615 26.303C73.3845 26.2791 73.3072 26.2552 73.2299 26.2311M77.7289 28.1336L73.2299 26.2311M77.7289 28.1336C77.9002 28.2575 78.0468 28.3924 78.1385 28.5245M77.7289 28.1336L78.1385 28.5245M73.2299 26.2311C61.6709 22.6368 50.7452 17.2969 40.079 11.6616M73.2299 26.2311L40.079 11.6616M78.1385 28.5245C78.228 28.6532 78.2395 28.7391 78.2284 28.7997L78.1385 28.5245Z" fill="white" stroke="#EAEAEA"/>
</g>
<g opacity="0.16">
<path opacity="0.16" d="M97.8932 36.1704L97.475 36.4446C97.5426 36.5477 97.575 36.6965 97.5557 36.8283C97.5369 36.957 97.4838 37.0018 97.4512 37.0166L97.4499 37.0173C97.3867 37.0464 97.2869 37.0528 97.0507 37.0286C94.7288 36.7851 92.5584 35.9117 90.3627 34.8823C89.8431 34.6387 89.3204 34.3854 88.794 34.1303C87.1185 33.3184 85.4047 32.4879 83.6293 31.8915L83.6292 31.8915C83.1969 31.7463 82.4987 31.3529 82.1325 30.9402C81.944 30.7279 81.9279 30.6067 81.9323 30.5712C81.9323 30.5711 81.9323 30.5711 81.9323 30.571C81.9329 30.5652 81.947 30.4366 82.3125 30.2666C82.4792 30.1896 82.7151 30.1612 83.0317 30.2001C83.3453 30.2387 83.6984 30.3384 84.0691 30.4743C84.4378 30.6094 84.8067 30.7738 85.1523 30.9335C85.2331 30.9708 85.3136 31.0084 85.3931 31.0455C85.6437 31.1624 85.8827 31.274 86.0802 31.3548L86.0803 31.3548C89.5642 32.7803 93.0287 34.2555 96.4725 35.7796C96.9541 35.9937 97.2936 36.1684 97.4753 36.445L97.8932 36.1704ZM97.8932 36.1704C97.618 35.7516 97.1336 35.5262 96.6752 35.3225M97.8932 36.1704C98.1692 36.5914 98.1146 37.2632 97.6591 37.4714C97.4551 37.5654 97.2223 37.5488 96.9992 37.5259C94.0078 37.2124 91.2873 35.8942 88.555 34.5704C86.8859 33.7616 85.2124 32.9507 83.4701 32.3655L96.6752 35.3225M96.6752 35.3225C93.227 33.7964 89.758 32.3194 86.2696 30.892L96.6752 35.3225Z" fill="white" stroke="#EAEAEA"/>
</g>
<g opacity="0.16">
<path opacity="0.16" d="M52.5 61.9245C52.6684 61.18 52.038 60.51 51.446 60.0231C48.8284 57.8691 45.8787 56.185 42.9268 54.4997C41.4838 53.6759 40.0402 52.8517 38.6347 51.9722C34.3539 49.2935 30.2486 45.8786 28.3452 41.2135M52.5 61.9245L52.0124 61.8138C52.0123 61.8139 52.0123 61.814 52.0123 61.8141M52.5 61.9245L52.0123 61.8141M52.5 61.9245L52.0123 61.8141M52.0123 61.8141C52.0562 61.6201 52.0067 61.4058 51.8399 61.1512C51.6706 60.8928 51.4108 60.6416 51.1284 60.4093L51.1283 60.4092C49.2105 58.831 47.1048 57.5038 44.9315 56.231C44.1931 55.7986 43.4439 55.3708 42.6917 54.9413C41.2427 54.114 39.7829 53.2805 38.3694 52.396C34.0633 49.7015 29.8464 46.2164 27.8823 41.4024M27.8823 41.4024C27.8823 41.4024 27.8823 41.4025 27.8823 41.4025L28.3452 41.2135M27.8823 41.4024L28.3452 41.2135M27.8823 41.4024C27.7502 41.0791 27.6218 40.7309 27.4971 40.393C27.4113 40.1603 27.3272 39.9325 27.245 39.721C27.0334 39.1764 26.808 38.6659 26.5166 38.1996M28.3452 41.2135C28.2139 40.8919 28.0934 40.5649 27.9729 40.2379C27.6805 39.4442 27.3881 38.6506 26.9406 37.9346M26.9406 37.9346L26.5166 38.1996M26.9406 37.9346C25.6245 35.8287 23.2027 34.7216 20.9206 33.73M26.9406 37.9346L26.5166 38.1995C26.5166 38.1996 26.5166 38.1996 26.5166 38.1996M26.5166 38.1996C25.2959 36.2464 23.0291 35.1913 20.7215 34.1887L20.9206 33.73M20.9206 33.73L20.7214 34.1886L49.4336 62.607M20.9206 33.73C18.7559 32.7901 16.9046 32.1415 15.0785 33.8393C12.9285 35.8382 12.107 38.7198 11.6328 41.5226C11.4174 42.7964 11.2415 44.1308 11.6439 45.3619C12.101 46.7672 13.2644 47.8552 14.5659 48.5649C15.7135 49.1923 16.9746 49.566 18.2308 49.9383C18.3985 49.988 18.566 50.0377 18.7332 50.0879C24.4953 51.8212 29.9816 54.3076 35.4703 56.7951C40.0685 58.879 44.6683 60.9637 49.4336 62.607M49.4336 62.607L49.5963 62.1342C49.5964 62.1343 49.5965 62.1343 49.5966 62.1343L49.4336 62.607Z" fill="white" stroke="#EAEAEA"/>
</g>
<g opacity="0.16">
<path opacity="0.16" d="M56.6301 65.2743L56.6302 65.2743C62.674 68.5845 68.7263 71.8889 75.2832 73.7474C75.717 73.8704 76.2287 73.9223 76.6261 73.8497C77.0216 73.7776 77.1708 73.6208 77.2083 73.4211C77.2394 73.2554 77.1819 73.0728 76.9679 72.8533C76.7512 72.631 76.4279 72.4328 76.0965 72.2797L76.0963 72.2796C74.6822 71.6253 73.2159 71.0914 71.7277 70.5496C71.3928 70.4276 71.0568 70.3053 70.72 70.1811C68.8983 69.5092 67.066 68.7864 65.353 67.7911L56.6301 65.2743ZM56.6301 65.2743C55.4535 64.6303 55.3586 63.8954 55.5104 63.5424M56.6301 65.2743L55.5104 63.5424M61.4505 65.1717C60.1655 64.3021 58.8776 63.538 57.4612 63.1074L61.4505 65.1717ZM61.4505 65.1717C61.8416 65.4364 62.236 65.7136 62.6339 65.9933M61.4505 65.1717L62.6339 65.9933M62.6339 65.9933C63.5215 66.6171 64.4268 67.2534 65.3529 67.791L62.6339 65.9933ZM55.5104 63.5424C55.6683 63.1751 56.2844 62.7506 57.4609 63.1073L55.5104 63.5424Z" fill="white" stroke="#EAEAEA"/>
</g>
</g>
<defs>
<clipPath id="clip0_234_1626">
<rect width="136" height="50" fill="white" transform="translate(19.5679) rotate(23.0389)"/>
</clipPath>
</defs>
</svg>
