<svg width="124" height="105" viewBox="0 0 124 105" fill="none" xmlns="http://www.w3.org/2000/svg">
<path d="M25.7626 86.6135V84.2344H98.3019V86.6135H25.7626Z" fill="white" stroke="#EAEAEA"/>
<path d="M0.5 19.0313V16.9652H123.5V19.0313H0.5Z" fill="white" stroke="#EAEAEA"/>
<path d="M28.7132 22.2646H19.7039V14.3317C19.7039 12.3366 21.3146 10.7221 23.2964 10.7221H25.1207C27.1025 10.7221 28.7132 12.3366 28.7132 14.3317V22.2646Z" fill="#EAEAEA" stroke="#EAEAEA"/>
<path d="M22.2375 98.5548V23.2646H26.1762V98.5548H22.2375Z" fill="#EAEAEA" stroke="#EAEAEA"/>
<path d="M22.7674 26.1662C22.5692 26.0805 22.3891 26.0232 22.2375 25.9849V23.2646H26.1762V30.7711C25.7134 29.725 25.14 28.5321 24.6217 27.7629C24.0256 26.8769 23.3297 26.4095 22.7674 26.1662Z" fill="white" stroke="#EAEAEA"/>
<path d="M20.9673 100.374V77.7247H27.4034V100.374H20.9673Z" fill="white" stroke="#EAEAEA"/>
<path d="M36.7479 103.628H10.9562V103.214C10.9562 101.878 12.0342 100.799 13.3594 100.799H34.3447C35.6699 100.799 36.7479 101.878 36.7479 103.214V103.628Z" fill="white" stroke="#EAEAEA"/>
<path d="M20.9673 71.0199V38.1095H27.4034V71.0199H20.9673Z" fill="white" stroke="#EAEAEA"/>
<path d="M25.2443 42.0869C25.2443 42.6641 24.7784 43.129 24.2086 43.129C23.6389 43.129 23.1729 42.6641 23.1729 42.0869C23.1729 41.5096 23.6389 41.0447 24.2086 41.0447C24.7784 41.0447 25.2443 41.5096 25.2443 42.0869Z" fill="white" stroke="#EAEAEA"/>
<path d="M25.2443 47.1076C25.2443 47.6848 24.7784 48.1497 24.2086 48.1497C23.6389 48.1497 23.1729 47.6848 23.1729 47.1076C23.1729 46.5303 23.6389 46.0654 24.2086 46.0654C24.7784 46.0654 25.2443 46.5303 25.2443 47.1076Z" fill="white" stroke="#EAEAEA"/>
<path d="M25.2443 52.1264C25.2443 52.7037 24.7784 53.1686 24.2086 53.1686C23.6389 53.1686 23.1729 52.7037 23.1729 52.1264C23.1729 51.5492 23.6389 51.0843 24.2086 51.0843C24.7784 51.0843 25.2443 51.5492 25.2443 52.1264Z" fill="white" stroke="#EAEAEA"/>
<path d="M25.2443 57.1471C25.2443 57.7243 24.7784 58.1892 24.2086 58.1892C23.6389 58.1892 23.1729 57.7243 23.1729 57.1471C23.1729 56.5699 23.6389 56.105 24.2086 56.105C24.7784 56.105 25.2443 56.5699 25.2443 57.1471Z" fill="white" stroke="#EAEAEA"/>
<path d="M25.2443 62.1678C25.2443 62.745 24.7784 63.2099 24.2086 63.2099C23.6389 63.2099 23.1729 62.745 23.1729 62.1678C23.1729 61.5905 23.6389 61.1256 24.2086 61.1256C24.7787 61.1256 25.2443 61.5892 25.2443 62.1678Z" fill="white" stroke="#EAEAEA"/>
<path d="M25.2443 67.1867C25.2443 67.764 24.7784 68.2289 24.2086 68.2289C23.6389 68.2289 23.1729 67.764 23.1729 67.1867C23.1729 66.6095 23.6389 66.1446 24.2086 66.1446C24.7784 66.1446 25.2443 66.6095 25.2443 67.1867Z" fill="white" stroke="#EAEAEA"/>
<path d="M103.308 22.2364H94.2987V14.3035C94.2987 12.3084 95.9095 10.6939 97.8912 10.6939H99.7156C101.697 10.6939 103.308 12.3084 103.308 14.3035V22.2364Z" fill="#EAEAEA" stroke="#EAEAEA"/>
<path d="M96.8325 98.5266V23.2364H100.771V98.5266H96.8325Z" fill="#EAEAEA" stroke="#EAEAEA"/>
<path d="M97.3624 26.138C97.1642 26.0523 96.9841 25.995 96.8325 25.9567V23.2364H100.771V30.7429C100.308 29.6968 99.735 28.5039 99.2167 27.7347C98.6206 26.8487 97.9247 26.3813 97.3624 26.138Z" fill="white" stroke="#EAEAEA"/>
<path d="M95.5608 100.345V77.6965H101.997V100.345H95.5608Z" fill="white" stroke="#EAEAEA"/>
<path d="M111.341 103.6H85.5497V103.186C85.5497 101.85 86.6277 100.771 87.9529 100.771H108.938C110.263 100.771 111.341 101.85 111.341 103.186V103.6Z" fill="white" stroke="#EAEAEA"/>
<path d="M95.5608 70.9919V38.0814H101.997V70.9919H95.5608Z" fill="white" stroke="#EAEAEA"/>
<path d="M99.043 41.0507C99.598 41.1823 99.9447 41.742 99.8126 42.3038C99.6805 42.8656 99.1211 43.2105 98.5661 43.0789C98.011 42.9473 97.6644 42.3875 97.7965 41.8257C97.9286 41.2639 98.488 40.9191 99.043 41.0507Z" fill="white" stroke="#EAEAEA"/>
<path d="M99.042 46.0708C99.597 46.2024 99.9437 46.7621 99.8116 47.3239C99.6795 47.8857 99.1201 48.2306 98.5651 48.099C98.0101 47.9674 97.6634 47.4077 97.7955 46.8459C97.9276 46.2841 98.487 45.9392 99.042 46.0708Z" fill="white" stroke="#EAEAEA"/>
<path d="M99.0423 51.0911C99.5973 51.2227 99.944 51.7825 99.8119 52.3443C99.6798 52.906 99.1204 53.2509 98.5654 53.1193C98.0104 52.9877 97.6637 52.428 97.7958 51.8662C97.9279 51.3044 98.4873 50.9595 99.0423 51.0911Z" fill="white" stroke="#EAEAEA"/>
<path d="M99.0429 56.1115C99.598 56.2431 99.9447 56.8029 99.8125 57.3646C99.6804 57.9264 99.1211 58.2713 98.566 58.1397C98.011 58.0081 97.6643 57.4484 97.7964 56.8866C97.9285 56.3248 98.4879 55.9799 99.0429 56.1115Z" fill="white" stroke="#EAEAEA"/>
<path d="M99.5337 61.4018C99.9386 61.8084 99.9386 62.4676 99.5337 62.8742C99.1289 63.2807 98.4724 63.2807 98.0676 62.8742C97.6627 62.4676 97.6627 61.8084 98.0676 61.4018C98.4724 60.9953 99.1289 60.9953 99.5337 61.4018Z" fill="white" stroke="#EAEAEA"/>
<path d="M99.8375 67.1586C99.8375 67.7361 99.3719 68.2007 98.8018 68.2007C98.2318 68.2007 97.7661 67.7361 97.7661 67.1586C97.7661 66.5811 98.2318 66.1165 98.8018 66.1165C99.3719 66.1165 99.8375 66.5811 99.8375 67.1586Z" fill="white" stroke="#EAEAEA"/>
<path d="M50.0898 103.628V75.4189H72.2063V103.628H50.0898Z" fill="white" stroke="#EAEAEA"/>
<path d="M47.5461 103.628V102.174H74.3638V103.628H47.5461Z" fill="white" stroke="#EAEAEA"/>
<path d="M44.4122 74.4206V74.2396H77.8906V74.4206H44.4122Z" fill="#EAEAEA" stroke="#EAEAEA"/>
<path d="M77.8906 73.2396H44.4122V70.1551C44.4122 68.7744 45.5264 67.6586 46.8962 67.6586H75.4066C76.7764 67.6586 77.8906 68.7744 77.8906 70.1551V73.2396Z" fill="#EAEAEA" stroke="#EAEAEA"/>
<path d="M45.6144 78.0151V75.4189H45.9407V78.0151H45.6144Z" fill="white" stroke="#EAEAEA"/>
<path d="M76.3569 78.0151V75.4189H76.6831V78.0151H76.3569Z" fill="white" stroke="#EAEAEA"/>
<path d="M50.0898 75.5506V75.4206H72.2063V82.6627C71.9492 82.4635 71.6277 82.2243 71.2331 81.9473C69.939 81.0388 67.8589 79.7228 64.6931 78.0717C61.4554 76.3831 57.6579 75.7695 54.6975 75.5719C53.2123 75.4727 51.9269 75.4776 51.0117 75.5073C50.6398 75.5194 50.3287 75.5355 50.0898 75.5506Z" fill="white" stroke="#EAEAEA"/>
<path d="M72.2063 100.802V101.174H66.0815L72.2063 100.802Z" fill="white" stroke="#EAEAEA"/>
<path d="M11.1179 35.2428V0.500305H14.6277V35.2428H11.1179Z" fill="white" stroke="#EAEAEA"/>
<path d="M11.1179 32.0376V23.9819H14.6277V32.0376H11.1179Z" fill="#EAEAEA" stroke="#EAEAEA"/>
<path d="M6.60828 30.8367V6.1156H10.1181V30.8367H6.60828Z" fill="white" stroke="#EAEAEA"/>
<path d="M6.60828 28.5309V23.0145H10.1181V28.5309H6.60828Z" fill="#EAEAEA" stroke="#EAEAEA"/>
<path d="M2.10022 27.5404V8.2027H5.61003V27.5404H2.10022Z" fill="white" stroke="#EAEAEA"/>
<path d="M5.60838 25.7166H2.10022V21.5635H5.60838V21.9679V25.7166Z" fill="#EAEAEA" stroke="#EAEAEA"/>
<g opacity="0.48">
<path opacity="0.48" d="M2.86039 10.0309L2.86037 10.0299C2.8552 9.72158 2.85795 9.50505 2.92014 9.31976C3.0059 9.06527 3.28405 8.84717 3.60673 8.80471L3.60673 8.80471L3.60786 8.80456C3.68866 8.79374 3.94429 8.79677 4.18046 8.84853C4.19356 8.8514 4.2061 8.85432 4.21811 8.85727C4.16131 8.89 4.09441 8.91999 3.99748 8.96242C3.99408 8.96391 3.99063 8.96542 3.98714 8.96695C3.8905 9.00923 3.76027 9.06621 3.6348 9.14327C3.24485 9.38194 3.00686 9.72919 2.86134 10.0958L2.86039 10.0309ZM4.41329 8.93002C4.41327 8.93002 4.41276 8.92967 4.41186 8.92896L4.41329 8.93002Z" fill="white" stroke="#EAEAEA"/>
</g>
<g opacity="0.48">
<path opacity="0.48" d="M7.78192 6.71979L7.78192 6.71979L7.78264 6.71936C7.8223 6.69575 7.94311 6.652 8.14669 6.62925C8.33795 6.60787 8.557 6.61018 8.7614 6.64152C8.97089 6.67365 9.13133 6.73105 9.23005 6.7952C9.3197 6.85345 9.32534 6.89178 9.32716 6.90979L9.32708 6.91099C9.32697 6.91181 9.32651 6.9145 9.32469 6.91937C9.32082 6.92967 9.31092 6.94921 9.28826 6.97562C9.24019 7.03165 9.15936 7.08954 9.06652 7.12783C8.97254 7.1666 8.87812 7.19365 8.75465 7.22903C8.72005 7.23894 8.68317 7.24951 8.64337 7.26117C8.47883 7.30939 8.27163 7.37511 8.07289 7.49229L8.07279 7.49236C7.71599 7.70286 7.48643 8.00778 7.33797 8.33358C7.33774 8.31794 7.33751 8.30229 7.33728 8.28665L7.33728 8.28625C7.33165 7.92455 7.34643 7.5741 7.42279 7.28148C7.49794 6.9935 7.61737 6.8174 7.78192 6.71979Z" fill="white" stroke="#EAEAEA"/>
</g>
<g opacity="0.48">
<path opacity="0.48" d="M14.0871 1.89857C13.9706 1.89202 13.8605 1.85378 13.7502 1.81547C13.6651 1.78593 13.5799 1.75635 13.4916 1.74121C12.9423 1.64845 12.4458 2.16028 12.3188 2.70525C12.2132 3.15809 12.2876 3.62579 12.3613 4.08841C12.3762 4.18253 12.3912 4.27643 12.4046 4.36996C12.5925 5.68264 12.4791 7.01113 12.3661 8.33585L14.0871 1.89857ZM14.0871 1.89857C14.925 1.9466 14.8409 0.881518 14.2652 0.563483L14.0871 1.89857ZM12.3094 1.1803L12.3094 1.1803L12.3102 1.18011C12.3886 1.161 12.4681 1.14054 12.5486 1.11983C12.792 1.05718 13.0445 0.992195 13.304 0.954862C13.6597 0.903702 13.8936 0.928806 14.022 1.00031L14.022 1.00032L14.0234 1.00114C14.0689 1.02627 14.118 1.07435 14.1557 1.14601C14.1939 1.21859 14.2088 1.29349 14.2066 1.34873C14.2057 1.3719 14.2024 1.38616 14.1997 1.394C14.1869 1.3977 14.1611 1.40199 14.1157 1.39939L14.1151 1.39936C14.0873 1.39779 14.0466 1.38867 13.9504 1.35566C13.9409 1.35239 13.9303 1.34869 13.9188 1.34466C13.8373 1.3161 13.709 1.27118 13.5761 1.24839L13.5749 1.24819C13.114 1.17035 12.7057 1.35303 12.4156 1.60949C12.1494 1.84492 11.9504 2.16716 11.8534 2.50816C11.8435 2.35304 11.8334 2.19793 11.823 2.04284C11.8107 1.85501 11.8061 1.70009 11.825 1.56853C11.8432 1.44191 11.8777 1.37868 11.9116 1.34293C11.9665 1.28593 12.0727 1.23761 12.3094 1.1803ZM14.1962 1.40188C14.1962 1.40187 14.1964 1.40157 14.1968 1.40103L14.1962 1.40188ZM14.2063 1.39173C14.2087 1.39003 14.2101 1.38945 14.2102 1.38959C14.2103 1.38972 14.2091 1.39057 14.2063 1.39173Z" fill="white" stroke="#EAEAEA"/>
</g>
<path d="M5.60835 21.4662H5.58676L5.60835 21.2105V21.2276V21.2459V21.264V21.2819V21.2995V21.317V21.3343V21.3513V21.3682V21.3848V21.4012V21.4175V21.4335V21.4493V21.4648V21.4662Z" fill="#56A2BE" stroke="#EAEAEA"/>
<path d="M10.1181 22.6605H10.0965L10.1181 22.4048V22.4219V22.4402V22.4583V22.4761V22.4938V22.5113V22.5285V22.5456V22.5624V22.5791V22.5955V22.6117V22.6277V22.6435V22.6591V22.6605Z" fill="#56A2BE" stroke="#EAEAEA"/>
<path d="M14.5471 24.7245H14.5255L14.5471 24.4688V24.4859V24.5041V24.5222V24.5401V24.5578V24.5752V24.5925V24.6096V24.6264V24.643V24.6595V24.6757V24.6917V24.7075V24.7231V24.7245Z" fill="#56A2BE" stroke="#EAEAEA"/>
<path d="M112.275 0.499969V35.2424H108.765V0.499969H112.275Z" fill="white" stroke="#EAEAEA"/>
<path d="M112.275 23.9807V32.0364H108.765V23.9807H112.275Z" fill="#EAEAEA" stroke="#EAEAEA"/>
<path d="M116.784 6.11665V30.8377H113.274V6.11665H116.784Z" fill="white" stroke="#EAEAEA"/>
<path d="M116.784 23.0133V28.5297H113.274V23.0133H116.784Z" fill="#EAEAEA" stroke="#EAEAEA"/>
<path d="M121.292 8.20244V27.5401H117.782V8.20244H121.292Z" fill="white" stroke="#EAEAEA"/>
<path d="M121.293 21.5634V25.7166H117.785V21.9678V21.5634H121.293Z" fill="#EAEAEA" stroke="#EAEAEA"/>
<g opacity="0.48">
<path opacity="0.48" d="M120.532 10.0298L120.532 10.0308L120.531 10.0956C120.386 9.72906 120.148 9.38181 119.758 9.14315C119.633 9.06609 119.502 9.00911 119.406 8.96683C119.402 8.9653 119.399 8.96379 119.395 8.9623C119.298 8.91986 119.232 8.88988 119.175 8.85715C119.187 8.8542 119.199 8.85128 119.212 8.84841C119.449 8.79665 119.704 8.79362 119.785 8.80444L119.786 8.80456C120.108 8.84705 120.387 9.06567 120.473 9.3198L120.947 9.16027L120.473 9.31946C120.535 9.50479 120.538 9.72136 120.532 10.0298ZM120.85 17.542C120.85 17.542 120.85 17.5419 120.85 17.5419C120.85 17.5425 120.85 17.5429 120.85 17.5429C120.85 17.5429 120.85 17.5426 120.85 17.542ZM118.98 8.9299C118.98 8.92989 118.98 8.92953 118.981 8.92883L118.98 8.9299Z" fill="white" stroke="#EAEAEA"/>
</g>
<g opacity="0.48">
<path opacity="0.48" d="M115.866 6.28969C116.503 6.66736 116.567 7.55189 116.555 8.29397L115.866 6.28969ZM115.866 6.28969L115.866 6.2897L115.866 6.28969ZM115.61 6.7193L115.611 6.71973C115.775 6.81733 115.895 6.99344 115.97 7.28142C116.046 7.57404 116.061 7.92449 116.056 8.28619L116.056 8.28659C116.055 8.30223 116.055 8.31787 116.055 8.3335C115.906 8.00771 115.677 7.7028 115.32 7.49229L115.32 7.49223C115.121 7.37505 114.914 7.30933 114.749 7.26111C114.71 7.24945 114.673 7.23888 114.638 7.22897C114.515 7.19359 114.42 7.16654 114.326 7.12777C114.233 7.08948 114.153 7.03159 114.105 6.97556C114.082 6.94915 114.072 6.92961 114.068 6.91931C114.066 6.91444 114.066 6.91175 114.066 6.91093L114.066 6.9093C114.068 6.89111 114.074 6.85293 114.163 6.79513C114.262 6.73099 114.422 6.67358 114.631 6.64146C114.836 6.61012 115.055 6.60781 115.246 6.62918C115.45 6.65194 115.571 6.69569 115.61 6.7193Z" fill="white" stroke="#EAEAEA"/>
</g>
<g opacity="0.48">
<path opacity="0.48" d="M111.083 1.18005L111.083 1.18024C111.32 1.23755 111.426 1.28586 111.481 1.34285C111.515 1.3786 111.55 1.44184 111.568 1.56847C111.587 1.70002 111.582 1.85495 111.57 2.04276C111.559 2.19786 111.549 2.35298 111.539 2.50811C111.442 2.16711 111.243 1.84486 110.977 1.60943C110.687 1.35297 110.279 1.17029 109.818 1.24812L109.818 1.24812L109.817 1.24833C109.684 1.27112 109.556 1.31604 109.474 1.3446C109.463 1.34863 109.452 1.35233 109.442 1.3556C109.346 1.3886 109.306 1.39773 109.278 1.39929L109.277 1.39932C109.232 1.40193 109.206 1.39764 109.193 1.39394C109.19 1.3861 109.187 1.37184 109.186 1.34867C109.184 1.29343 109.199 1.21853 109.237 1.14595C109.275 1.07429 109.324 1.02621 109.369 1.00108L109.369 1.00108L109.371 1.00025C109.499 0.928745 109.733 0.903641 110.089 0.954801C110.348 0.992134 110.601 1.05712 110.844 1.11977C110.925 1.14048 111.004 1.16094 111.083 1.18005ZM109.183 1.38953C109.183 1.38939 109.184 1.38997 109.186 1.39167C109.184 1.3905 109.183 1.38966 109.183 1.38953ZM109.196 1.40097C109.196 1.40151 109.197 1.40181 109.197 1.40182L109.196 1.40097Z" fill="white" stroke="#EAEAEA"/>
</g>
<path d="M117.785 21.4662V21.4648V21.4492V21.4334V21.4174V21.4012V21.3847V21.3681V21.3513V21.3342V21.3169V21.2995V21.2818V21.2639V21.2458V21.2276V21.2106L117.806 21.4662H117.785Z" fill="#56A2BE" stroke="#EAEAEA"/>
<path d="M113.275 22.6604V22.659V22.6434V22.6276V22.6116V22.5954V22.579V22.5623V22.5455V22.5284V22.5112V22.4937V22.476V22.4581V22.4401V22.4218V22.4046L113.296 22.6604H113.275Z" fill="#56A2BE" stroke="#EAEAEA"/>
<path d="M108.846 24.7243V24.7229V24.7074V24.6916V24.6756V24.6594V24.6429V24.6263V24.6094V24.5924V24.5751V24.5576V24.54V24.5221V24.504V24.4857V24.4686L108.868 24.7243H108.846Z" fill="#56A2BE" stroke="#EAEAEA"/>
</svg>
