<svg width="132" height="316" viewBox="0 0 132 316" fill="none" xmlns="http://www.w3.org/2000/svg">
  <g clip-path="url(#a)">
    <path d="M101.38 172.05c.44-17.33-5.26-40.8-5.26-40.8H39.49s-5.7 23.48-5.26 40.8c.44 17.33 11.12 51.77 11.34 54.77.22 2.99-4.8 17.33-2.4 25.46 2.4 8.13 6.32 21.61 6.98 24.82.65 3.21 1.09 14.97 1.09 14.97s-4.8 7.49-8.07 11.55c-3.27 4.06-4.58 6.85-3.71 8.56.87 1.71 4.58 4.92 10.03 2.35 5.45-2.57 8.28-4.06 8.72-9.84.44-5.78 4.36-5.56 4.8-10.91.44-5.35-.22-7.92-.22-10.48 0-2.57 3.49-26.1 3.49-26.1l1.53-18.61 1.53 18.61s3.49 23.53 3.49 26.1c0 2.57-.65 5.13-.22 10.48.44 5.35 4.36 5.13 4.8 10.91.44 5.78 3.27 7.27 8.72 9.84 5.45 2.57 9.16-.64 10.03-2.35.87-1.71-.44-4.49-3.71-8.56-3.27-4.06-8.07-11.55-8.07-11.55s.44-11.77 1.09-14.97c.65-3.21 4.58-16.69 6.98-24.82 2.4-8.13-2.62-22.46-2.4-25.46.21-3 10.89-37.45 11.33-54.77Z" fill="#fff" stroke="#949494" stroke-miterlimit="10" stroke-linecap="round" stroke-linejoin="round"/>
    <path d="M67.81 131.24H39.49s-5.7 23.48-5.26 40.8c.05 1.87.22 3.95.48 6.15 4.75 2.24 15.63 5.64 33.01 1.66 0 0 18.07 5.86 32.86.83.44-3.15.74-6.08.8-8.64.44-17.33-5.26-40.8-5.26-40.8H67.81Z" fill="#56A2BE" stroke="#949494" stroke-miterlimit="10" stroke-linecap="round" stroke-linejoin="round"/>
    <path d="M67.72 236.21v-71.78m-5.54-5.36s2.77 4.62 7.06 6.01" stroke="#949494" stroke-miterlimit="10" stroke-linecap="round" stroke-linejoin="round"/>
    <path d="M122.4 135.88c-.55-4.36-3.95-14.18-3.95-14.18l-3.59-20.09s-.13-12.17.13-15.15c.26-2.98.65-9.07-2.98-14.25s-14.51-5.7-14.51-5.7-6.61-2.72-11.4-5.31c-4.79-2.59-6.39-8.21-6.39-8.21l-.82-11.32-11.19.12-11.19-.12-.82 11.32s-1.6 5.62-6.39 8.21c-4.79 2.59-11.4 5.31-11.4 5.31s-10.88.52-14.51 5.7c-3.63 5.18-3.24 11.27-2.98 14.25.26 2.98.13 15.15.13 15.15l-3.58 20.09s-3.41 9.82-3.95 14.18c-.55 4.36-2.86 34.24-2.45 36.42.41 2.18 1.5 4.77 1.91 6.41.41 1.64 3 11.86 3.27 12.68.27.82 5.32 1.09 6.14 2.32.82 1.23 3.68-1.91 5.04-3.54 1.36-1.64 3.27-.41 3.82-3.14.55-2.73.27-4.09.14-6.41-.14-2.32-2.32-4.09-4.23-5.18-1.91-1.09-5.45-1.64-5.59-8.59-.14-6.95 9.68-25.65 10.5-31.65.82-6 0-13.63.27-14.04.27-.41 5.44-17.21 5.44-17.21s1.2 9.11 1.43 13.3c.24 4.27.51 8.27.51 8.27v6l27.01-.27h2.98l27.01.27v-6s.19-5.51.5-9.04c.24-2.8 1.44-12.53 1.44-12.53s5.17 16.8 5.44 17.21c.27.41-.55 8.04.27 14.04.82 6 10.63 24.7 10.5 31.65-.14 6.95-3.68 7.5-5.59 8.59-1.91 1.09-4.09 2.86-4.23 5.18-.14 2.32-.41 3.68.14 6.41s2.45 1.5 3.82 3.14c1.36 1.64 4.23 4.77 5.04 3.54.82-1.23 5.86-1.5 6.14-2.32.27-.82 2.86-11.04 3.27-12.68.41-1.64 1.5-4.23 1.91-6.41.4-2.18-1.92-32.06-2.46-36.42Z" fill="#fff" stroke="#949494" stroke-miterlimit="10" stroke-linecap="round" stroke-linejoin="round"/>
    <path d="m43.66 66.93 13.65 1.76m35.22-2.2-14.97 1.98m-40.3 35.47-3.5-12.8-3.3-4.84m67.68 17.64 2.54-14.12 3.74-4.62M38.16 96.43s5.5 4.18 8.14 4.84c2.64.66 13.21.88 18.49-3.52m25.05 2.73c-.71.37-1.38.65-1.93.79-2.64.66-13.21.88-18.49-3.52m26.63-1.32s-1.38 1.05-3.08 2.17m-65.65 84.49s-2.89 2.89-3.49 5.09" stroke="#949494" stroke-miterlimit="10" stroke-linecap="round" stroke-linejoin="round"/>
    <path d="M25.42 185.48s1-.3 1.5 1.2.68 2.97-.01 3.48m82.11-8.61s2.66 2.22 1.92 4.88" stroke="#949494" stroke-miterlimit="10" stroke-linecap="round" stroke-linejoin="round"/>
    <path d="M107.69 189.09s-.3-2.22.3-3.25c.59-1.03 2.81-1.03 2.81-1.03" stroke="#949494" stroke-miterlimit="10" stroke-linecap="round" stroke-linejoin="round"/>
    <path d="M53.05 29.46s-2.51-3.39-3.27-.25c-.75 3.14 4.02 6.28 4.02 6.28l-.75-6.03Zm28.89 0s2.51-3.39 3.27-.25c.75 3.14-4.02 6.28-4.02 6.28l.75-6.03Z" fill="#fff" stroke="#949494" stroke-miterlimit="10" stroke-linecap="round" stroke-linejoin="round"/>
    <path d="M52.49 18.67s1.28 22.01 2.73 25.55c1.45 3.54 7.9 8.42 9.65 8.95 1.75.53 5.4.34 6.15.1.76-.24 7.88-5.65 8.8-8.02.92-2.37 3.05-25.58 3.05-25.58s-.77-6.92-8-10.18-11.9-2.2-16.48 1.12c-4.57 3.31-5.9 8.06-5.9 8.06Z" fill="#fff" stroke="#949494" stroke-miterlimit="10" stroke-linecap="round" stroke-linejoin="round"/>
    <path d="M53.05 29.46 54.4 24s3.48-2.13 3.48-4.83c0-2.71-.39-6.57-.39-6.57s7.35 2.9 10.05 2.71c2.71-.19 10.24-2.13 10.24-2.13s-.19 5.8.39 6.57c.58.77 2.71 4.06 2.71 4.06l1.06 5.66 1.46-1.21s.77-11.6.77-12.37c0-.77.97-2.32-1.35-6.38C80.5 5.44 70.25-.36 66 .61c-4.25.97-14.69 7.73-15.08 10.63-.39 2.9 2.13 18.22 2.13 18.22Z" fill="#949494" stroke="#949494" stroke-miterlimit="10" stroke-linecap="round" stroke-linejoin="round"/>
    <path d="M66.72 72.37V94.4" stroke="#949494" stroke-miterlimit="10" stroke-linecap="round" stroke-linejoin="round"/>
    <circle cx="41" cy="236" r="9" fill="#56A2BE"/>
    <path d="M42.65 232.58h-2.9l-.04 2.13c.153-.06.31-.103.47-.13.16-.027.32-.04.48-.04.333 0 .637.057.91.17.273.113.507.273.7.48.2.2.353.44.46.72.113.273.17.573.17.9 0 .34-.06.653-.18.94a2.23 2.23 0 0 1-.5.73c-.213.2-.467.357-.76.47-.287.113-.6.17-.94.17a2.33 2.33 0 0 1-1.21-.32 2.084 2.084 0 0 1-.83-.94l.71-.31c.133.28.32.503.56.67.24.16.517.24.83.24.227 0 .437-.04.63-.12.193-.087.36-.2.5-.34.147-.14.26-.307.34-.5.087-.193.13-.4.13-.62a1.74 1.74 0 0 0-.13-.68 1.557 1.557 0 0 0-.36-.53 1.528 1.528 0 0 0-.55-.35 1.979 1.979 0 0 0-.7-.12c-.253 0-.507.037-.76.11-.247.067-.483.16-.71.28l.07-3.67h3.61v.66Z" fill="#fff"/>
    <circle cx="95" cy="254" r="9" fill="#56A2BE"/>
    <path d="M93.2 254.93c0 .227.037.433.11.62.08.187.19.35.33.49.14.133.307.237.5.31.193.073.407.11.64.11.233 0 .447-.037.64-.11.193-.073.36-.177.5-.31.14-.14.247-.303.32-.49.08-.187.12-.393.12-.62 0-.227-.04-.433-.12-.62a1.314 1.314 0 0 0-.32-.48 1.473 1.473 0 0 0-.5-.31 1.658 1.658 0 0 0-.64-.12c-.233 0-.447.04-.64.12a1.428 1.428 0 0 0-.83.79c-.073.187-.11.393-.11.62Zm.72-1.97.02.02c.113-.08.263-.14.45-.18.193-.04.37-.06.53-.06.307 0 .59.057.85.17.267.107.497.257.69.45.193.193.343.423.45.69.113.267.17.56.17.88 0 .327-.057.623-.17.89a2.002 2.002 0 0 1-.48.69c-.207.193-.45.343-.73.45-.28.107-.587.16-.92.16-.333 0-.64-.053-.92-.16a2.216 2.216 0 0 1-.73-.45 2.002 2.002 0 0 1-.48-.69 2.254 2.254 0 0 1-.17-.89c0-.393.057-.737.17-1.03a6.31 6.31 0 0 1 .44-.87l1.91-3.11h.85l-1.93 3.04Z" fill="#fff"/>
  </g>
  <circle cx="123" cy="134" r="9" fill="#56A2BE"/>
  <path d="M123.44 130.64h-.02l-2.44 4.02h2.46v-4.02Zm.72 4.02h1.02v.66h-1.02V137h-.72v-1.68h-3.06v-.82l2.86-4.58h.92v4.74Z" fill="#fff"/>
  <circle cx="116" cy="67" r="9" fill="#56A2BE"/>
  <path d="M117.98 70h-4.5v-.83l2.82-2.87c.107-.107.213-.22.32-.34.107-.12.203-.247.29-.38.087-.133.157-.273.21-.42.053-.147.08-.3.08-.46 0-.193-.037-.367-.11-.52a1.05 1.05 0 0 0-.29-.39 1.28 1.28 0 0 0-.44-.24 1.553 1.553 0 0 0-.53-.09c-.36 0-.667.1-.92.3-.253.2-.417.47-.49.81l-.76-.08c.1-.527.34-.94.72-1.24.387-.3.853-.45 1.4-.45.287 0 .557.04.81.12.26.073.487.187.68.34.2.153.357.347.47.58.12.227.18.493.18.8 0 .273-.043.523-.13.75-.08.227-.187.44-.32.64s-.287.39-.46.57c-.167.18-.34.357-.52.53l-2.23 2.21h3.72V70Z" fill="#fff"/>
  <circle cx="20" cy="68" r="9" fill="#56A2BE"/>
  <path d="M20.48 71h-.72v-6.18l-1.27 1.12-.45-.54 1.8-1.48h.64V71Z" fill="#fff"/>
  <circle cx="9" cy="173" r="9" fill="#56A2BE"/>
  <path d="M8.04 171.96h.37c.207 0 .403-.023.59-.07.193-.047.36-.12.5-.22.14-.107.25-.243.33-.41.087-.167.13-.367.13-.6 0-.38-.117-.673-.35-.88-.227-.213-.547-.32-.96-.32-.3 0-.563.067-.79.2a1.563 1.563 0 0 0-.56.58l-.63-.32c.213-.38.483-.66.81-.84a2.31 2.31 0 0 1 1.15-.28c.28 0 .543.04.79.12.247.08.463.2.65.36.187.153.333.347.44.58.113.227.17.487.17.78 0 .193-.033.377-.1.55-.06.173-.147.33-.26.47-.107.14-.233.263-.38.37-.147.1-.3.177-.46.23l.03.02c.2.04.383.117.55.23.167.107.31.24.43.4a1.97 1.97 0 0 1 .38 1.17c0 .327-.06.617-.18.87s-.283.467-.49.64a2.229 2.229 0 0 1-.72.4c-.273.087-.563.13-.87.13-.52 0-.973-.113-1.36-.34-.387-.227-.677-.59-.87-1.09l.76-.23c.12.34.297.593.53.76.24.16.573.24 1 .24.2 0 .39-.033.57-.1.18-.067.337-.16.47-.28a1.27 1.27 0 0 0 .32-.45c.08-.173.12-.363.12-.57 0-.267-.05-.49-.15-.67a1.239 1.239 0 0 0-.4-.45 1.628 1.628 0 0 0-.58-.24 2.77 2.77 0 0 0-.67-.08h-.31v-.66Z" fill="#fff"/>
  <defs>
    <clipPath id="a">
      <path fill="#fff" transform="translate(10)" d="M0 0h115.4v315.98H0z"/>
    </clipPath>
  </defs>
</svg>
